<svg width="54" height="54" viewBox="0 0 54 54" fill="none" xmlns="http://www.w3.org/2000/svg">
<circle cx="27" cy="27" r="26" fill="#FFCF00" stroke="#FFCF00" stroke-width="2"/>
<path d="M5.01291 23.9733L5.01127 23.9425L5 23.9013L5.00969 23.8808L5.00803 23.8294L5.10313 23.7825L5.18216 23.6914L5.24985 23.7531L5.28693 23.7267L5.3514 23.6825L5.44658 23.5696L5.53364 23.364L5.48523 23.2583L5.49814 23.2099L5.61905 23.0998L5.63675 22.9691L5.74799 22.7944L5.74642 22.6873L5.67383 22.5918L5.57228 22.5506L5.54812 22.4714L5.50617 22.4304L5.52395 22.3363L5.4417 22.2777L5.43201 22.213L5.54009 22.0192L5.83025 21.4907L5.90441 21.2969L5.89796 21.2352L5.87858 21.1016L5.9318 21.0018L6.05437 20.8844L6.06404 20.7846L6.05271 20.6261L6.04948 20.5644L6.00115 20.5203L5.86252 20.5144L5.89315 20.4249L6.00115 20.4513L6.13009 20.4426L6.19779 20.4117L6.33327 20.2297L6.45418 20.1782L6.54282 20.0535L6.64279 19.9683L6.75079 19.757L6.80881 19.6968L6.91523 19.6483L7.00064 19.6497L7.34574 19.7128L7.55042 19.6601L7.78908 19.5587L7.87616 19.5L7.99533 19.3502L8.10507 19.2798L8.12113 19.2474L8.07437 19.1535L8.08727 19.0345L8.23559 18.9656L8.32265 18.9597L8.51125 19.0742L8.62083 19.0771L8.70789 19.0493L8.87729 18.8936L8.95145 18.7644L8.92232 18.7072L8.95618 18.6324L9.03678 18.5649L9.05773 18.5075L9.00781 18.4416L8.9546 18.3725L8.76599 18.0085L8.75638 17.9468L8.81118 17.8396L8.86754 17.7897L8.9546 17.7603L9.01096 17.772L9.04009 17.8146L8.98357 17.8572L8.98199 17.8968L9.04654 17.9482L9.36566 17.9365L9.41888 17.9012L9.45761 17.913L9.48013 18.1054L9.45604 18.2962L9.49791 18.3329L9.61079 18.3489L9.6785 18.4988L9.74934 18.5574L9.77359 18.6367L9.74776 18.7733L9.78162 18.9877L10.0315 19.4457L10.1847 19.4926L10.2476 19.5543L10.312 19.7408L10.3556 19.7702L10.4169 19.7745L10.4491 19.8215L10.6071 19.8582L10.6538 19.9669L10.7313 19.9756L10.8006 19.9228L10.8375 19.9271L10.8779 19.9565L10.8763 20.0579L10.9021 20.1224L10.9602 20.1636L11.2277 20.2958L11.3971 20.3104L11.4164 20.2883L11.5405 20.281L11.8725 20.2047L12.229 20.0784L12.7561 19.754L13.0834 19.5631L13.1881 19.5469L13.3107 19.4853L13.3687 19.4222L13.4622 19.2474L13.4299 19.0126L13.2511 18.6192L13.1705 18.559L13.1752 18.5296L13.2462 18.5061L13.3074 18.4532L13.3978 18.4444L13.4283 18.3226L13.4784 18.2638L13.6154 18.1904L13.5493 18.0774L13.5477 18.0128L13.6234 17.9277L13.7524 17.7824L13.875 17.7132L14.0861 17.6883L14.2102 17.7426L14.3086 17.8308L14.3763 17.8469L14.4843 17.7779L14.5326 17.797L14.6439 17.9937L14.723 18.0275L14.8615 18.032L15.0969 17.9761L15.3598 17.8484L15.4742 17.772L15.5484 17.6765L15.5838 17.4755L15.6548 17.4799L15.7176 17.5401L15.7853 17.5591L15.8789 17.5283L15.974 17.5415L16.0191 17.5254L16.0739 17.433L16.1465 17.4168L16.3044 17.2979L16.4028 17.2671L16.4431 17.2714L16.5286 17.2024H16.5736L16.6382 17.3198L16.7059 17.3462L16.7687 17.3697L16.7622 17.5048V17.5137L16.8831 17.637L16.9299 17.684L17.0847 17.6737L17.1267 17.6958L17.2412 17.9012L17.2492 18.0525L17.32 18.2242L17.3427 18.3505L17.2926 18.5414L17.2911 18.5545L17.2815 18.6837L17.3298 18.8261L17.4443 18.9451L17.7925 19.1446L18.0553 19.155L18.2003 19.2166L18.4712 19.1947L18.7179 19.1213L18.8307 19.0919L19.0386 18.9641L19.1016 18.8437L19.2321 18.9039L19.3998 18.9479L19.4481 18.9891L19.453 19.1051L19.5207 19.2357L19.4917 19.4163L19.5432 19.5L19.4933 19.6365L19.4998 19.7114L19.5723 19.7819L19.6594 19.8803L19.8592 20.1107L19.9705 20.193L20.1816 20.2824L20.3058 20.3031L20.5929 20.535L20.8233 20.5849L20.8895 20.6553L21.1473 20.7919L21.3989 20.8345L21.4972 20.8374L21.5005 20.8404L21.5778 20.88L21.7535 20.899V20.9284L21.6762 20.9623L21.6971 21.0209L21.7116 21.0239L21.9518 21.0782L22.0986 21.1649L22.1888 21.175L22.6257 21.115L22.8755 21.0797L23.1594 20.9872L23.3222 20.9769L23.572 20.9197L23.7462 20.8418L24.3668 20.5071L24.6233 20.3353L24.7005 20.2722L24.8038 20.2325L24.9085 20.2355L25.0956 20.1445L25.218 20.1871L25.339 20.1915L25.4567 20.1372L25.605 20.1196L25.6968 20.0549L25.7792 20.0565L25.9903 20.1474L26.0758 20.2252L26.2902 20.3148L26.3982 20.3617L26.6754 20.3558L26.8689 20.4264L27.0157 20.4205L27.2123 20.3734L27.2624 20.3353L27.3172 20.2003L27.3913 20.2165L27.6556 20.3838L27.8587 20.3868L27.891 20.4132L28.1088 20.4249L28.2651 20.4953L28.4263 20.5042L28.5214 20.5614L28.6036 20.5717L28.8002 20.5746L28.9438 20.5247L29.0373 20.5379L29.2807 20.5937L29.3709 20.5687L29.6016 20.5585L29.9481 20.4292L30.3077 20.4704L30.6784 20.3177L30.9396 20.1356L31.1202 20.0344L31.1911 20.0431L31.3233 20.1386L31.6651 20.1577L31.7715 20.1327H31.9472L32.3278 20.0198L32.7484 19.7495L33.1468 19.757L33.3675 19.6027L33.5739 19.6043L33.6707 19.5676L33.972 19.3488L34.1865 19.2592L34.6024 18.7585L35.0233 18.3094L35.0974 18.1788L35.1361 18.1508L35.2038 18.1435L35.2441 18.1816L35.523 18.2786L35.7294 18.2903L35.8696 18.2565L36.3952 18.1214L36.6321 18.0304L36.8659 18.0569L37.0384 17.9805L37.3883 17.7163L37.4495 17.7016L37.5076 17.7426L37.5849 17.8734L37.6882 17.916L37.7477 17.9409L37.8042 18.0539L38.0719 18.3285L38.1024 18.3593L38.3168 18.3578L38.4571 18.3564H38.57L38.67 18.3901L38.7909 18.3915L39.0521 18.3475L39.1374 18.399L39.2583 18.5545L39.2536 18.6705L39.3035 18.7042L39.7566 18.854L40.0032 18.7336L40.0726 18.6823L40.2966 18.512L40.4868 18.4649L40.6883 18.3446L41.1962 17.8572L41.3929 17.5224L41.4009 17.5078L41.4042 17.5019L41.4171 17.4506L41.4396 17.3521L41.4429 17.3448L41.4799 17.2553L41.5605 17.0644L41.538 16.8368L41.5621 16.7121L41.5187 16.5976L41.3735 16.5477L41.4138 16.4846H41.5621L41.754 16.8971L41.725 17.1187L41.7073 17.2464L41.7008 17.2979L41.6799 17.333L41.6556 17.3728L41.7088 17.3991L41.8331 17.4622L42.0796 17.4989L42.2457 17.5137L42.3361 17.4989L42.7616 17.3697L43.0001 17.3405L43.1678 17.2831L43.9224 16.9558L44.2513 16.8119L44.5043 16.6505L44.8752 16.3862L45.1621 16.1439L45.3604 16.0367L45.4943 16L45.6152 16.0089L45.7844 16.0969L46.0875 16.2936L46.4453 16.467L46.5567 16.4905L46.6936 16.4816L46.971 16.5272L47 16.5505L46.9887 16.6006L46.9032 16.6651L46.36 16.8163L46.1149 16.9749L45.9715 17.1803L45.8909 17.433L45.857 17.5078L45.7521 17.7398L45.7602 17.7882L45.8167 17.8043L45.9038 17.7045L45.8795 17.6487L45.8924 17.6238L45.9601 17.6414L45.9988 17.6899L45.9826 17.7793L45.9118 17.9247L45.7699 18.1038L45.6216 18.2932L45.5651 18.3637L45.383 18.7042L45.1621 19.1462L45.0574 19.4266L44.9171 19.6688L44.6753 20.008L44.3544 20.2708L44.2787 20.5174L44.1593 20.6334L44.1126 20.7258L43.916 20.9226L43.5532 21.3601L43.4855 21.4291L43.3984 21.5921L43.1484 21.8916L43.0567 22.0133L42.9986 22.1808L42.826 22.332L42.7407 22.4861L42.4505 22.7621L42.3973 23.0014L42.4118 23.0675L42.4214 23.1188L42.3731 23.207L42.3279 23.2362L42.3102 23.2466L42.2296 23.2334L42.0796 23.4359L42.0602 23.4639L42.0651 23.5152L42.1087 23.5592L41.9201 23.7281L41.8491 23.8265L41.8266 23.825L41.8331 23.8543L41.4879 24.3271L41.2027 24.9026L41.2043 24.9128L41.2091 24.9452L41.2172 25.0068L41.2461 25.0259L41.2671 25.0391L41.2993 25.1741L41.4042 25.3224L41.3833 25.3929L41.1849 25.7115L41.1107 25.9919L41.1058 26.2048L41.0849 26.2547L40.8464 26.5394L40.8061 26.7215L40.7818 26.8302L40.7722 27.1076L40.8157 27.3793L40.7852 27.4805L40.7028 27.573L40.6674 27.7022L40.5529 27.7727L40.3917 27.9974L40.332 28.015L40.1644 28.172L40.0661 28.1926L40.0274 28.2277L40.0499 28.2792L40.0387 28.3174L40.0225 28.3378L39.8693 28.539L39.7887 28.6432L39.7566 28.6829L39.6647 28.8032L39.6453 28.8987L39.642 28.9149V28.9267V29.1262V29.1307L39.6437 29.1864V29.2173L39.6469 29.2819L39.6905 29.9132L39.6888 30.1186L39.6582 30.2009L39.6662 30.5371L39.721 30.8395L39.705 31.2608L39.7484 31.465L39.8452 31.6485L40.0886 31.6735L40.3176 31.7262L40.5369 31.9817L40.5836 31.9861L40.6158 31.989L40.6642 31.901L40.8544 31.989L40.9027 32.0448L40.8947 32.0727L40.9882 32.0772L41.0704 31.9949L41.0769 31.9142L41.1591 31.9215L41.2381 31.9904L41.3042 32.1593L41.4316 32.3092L41.6122 32.4515L41.7282 32.6438L41.8104 32.7275L41.7476 32.8376L41.7298 32.8713L41.6202 32.8875L41.5363 32.7906L41.459 32.7612L41.4283 32.7863L41.4218 33.074L41.3815 33.1458L41.3381 33.143L41.3107 33.0887L41.3494 32.955L41.3477 32.8376L41.3332 32.8082L41.3138 32.7701L41.2559 32.7245L41.1865 32.7099L41.006 32.8068L40.9738 32.8713L41.006 32.9873L40.9882 33.0416L40.8738 33.2105L40.8947 33.2251L40.9479 33.5305L41.0027 33.6319L41.1205 33.7507L41.0802 33.8065L41.1768 34.0415L41.251 34.1368L41.3559 34.1486L41.4154 34.1295L41.4509 34.0825L41.4476 34.0048L41.4784 33.9827L41.5959 34.0899L41.6041 34.106L41.6362 34.1735L41.6057 34.2059L41.4654 34.1824L41.4009 34.2L41.3606 34.3365L41.3993 34.4643L41.4557 34.5494L41.5959 34.6389L41.6444 34.7315L41.7669 34.7506L41.8491 34.8151L41.9636 34.8283L42.0894 34.7725L42.2522 34.8078L42.3247 34.8224L42.3617 34.8783L42.3924 35.1294L42.3956 35.2658V35.2703L42.3167 35.4567L42.3666 35.5256L42.3376 35.6475L42.315 35.6607L42.2666 35.5771L42.1393 35.5301L42.1054 35.5418L42.0587 35.6593L42.1152 35.8061L42.2022 35.9427L42.2522 35.9573L42.4423 35.8604L42.4682 35.8693L42.6117 35.9192L42.7035 36.1613L42.86 36.3787L42.8325 36.4417L42.5906 36.4124H42.5875L42.4811 36.3185L42.3779 36.317L42.3214 36.3639L42.2377 36.4359L42.1925 36.4417L42.1216 36.3947L42.0393 36.4168L41.9587 36.4667L41.9248 36.5269L41.9604 36.7633L41.8959 36.844L41.8652 36.9511L41.5235 36.9791L41.3606 37.1083L41.3123 37.1186L41.2172 37.0921L41.1817 37.2155L41.0655 37.2375L40.9738 37.327L40.7916 37.6501L40.5287 37.8028L40.2982 38.3342L40.253 38.4868L40.2514 38.5309L40.0468 38.7349L39.9468 38.8935L39.9 39.0932L39.9355 39.3222L39.9226 39.4485L39.8533 39.5996L39.7678 39.6539L39.7791 39.836L39.7388 39.9021V39.9607V39.9784L39.8114 40.1296L39.8355 40.2999L39.9274 40.4746L40.0644 40.5731L40.0258 40.6229L40.0918 40.799L40.0499 41.0575L40.0742 41.1191L40.2338 41.3394L40.295 41.4714L40.2998 41.5405L40.2144 41.7299L40.1918 41.7812L40.1628 41.7798L40.1467 41.6608L40.0661 41.6432L39.9564 41.677L39.9226 41.7049L39.8871 41.8194L39.7936 41.8341L39.6856 41.9544L39.6099 41.9956L39.5502 42L39.2503 41.7812L39.1456 41.564L39.0359 41.4318L38.8762 41.2777L38.8441 41.2629L38.7715 41.2262L38.499 41.1852L38.4587 41.2072L38.4507 41.2102L38.3249 41.3731L38.2605 41.3996L38.0719 41.3848L37.988 41.3775L37.8348 41.3422L37.751 41.2895L37.5655 41.0721L37.4221 40.962L37.1142 40.8182L36.7579 40.7639L36.6338 40.7844L36.5548 40.8211L36.4355 40.9458L36.2936 40.9547L36.2146 41.0135L36.1437 41.0281L36.0373 41.0135L35.9808 41.0368L35.8309 41.1705L35.7438 41.2043L35.6713 41.1895L35.5859 41.1177L35.5004 41.0869L35.3359 41.0766L35.294 41.0281L35.186 40.9077L35.1361 40.8989L35.0313 40.9914L34.9411 40.9371L34.8587 40.9606L34.7233 40.9503L34.5848 40.9987L34.4171 40.9342L34.388 40.9239L34.243 40.6611L34.1333 40.5451L33.6932 40.2574L33.4224 40.1825L33.3354 40.1355L33.1305 40.0445L32.6549 39.9299L32.6034 39.9285L32.5275 39.9755L32.3438 39.9212L32.1085 39.8668L31.9101 39.8463L31.7731 39.7523L31.6635 39.5351L31.57 39.4455L31.4652 39.3986L31.4427 39.105L31.3362 38.754L31.2443 38.5235L31.2153 38.4516L31.1556 38.3474L31.051 38.2564L30.9606 38.1197L30.8445 37.8364L30.7688 37.7762L30.7268 37.6059L30.5656 37.3358L30.1449 36.7911L29.8692 36.4344L29.2033 35.8192L28.8534 35.6373L28.6697 35.5081L28.4473 35.4757L28.4199 35.4244L28.4021 35.3906L28.2199 35.2922L28.1683 35.2644L27.7314 35.1132L27.4831 35L27.309 34.9913L26.9995 34.9165L26.8157 34.8739L26.3902 34.8092L25.9952 34.8548L25.6469 34.8108L25.086 34.8181L24.9778 34.8504L24.8473 34.9869L24.8101 35.0134L24.807 35.0162L24.8054 35.0177L24.5974 34.9943L24.5491 34.9899L24.4088 34.9957L24.3217 35.0251L24.1363 35.0089L24.0267 34.9576L23.8784 34.9282L23.6945 34.7534L23.6607 34.6537L23.5801 34.5288L23.2835 34.2911L23.1723 34.2514L22.8949 34.2029L22.6822 34.2147L22.6257 34.2455L22.4048 34.1853L22.2598 34.1765L22.1276 34.0972L21.9857 33.9049L21.8761 33.8109L21.7439 33.7889L21.6519 33.7479L21.2731 33.4938L21.1103 33.4512L20.9701 33.1797L20.8329 32.9844L20.7282 32.8905L20.6283 32.8743L20.5621 32.8317L20.28 32.5543L20.0237 32.4148L19.9736 32.3325L19.8253 32.1843L19.5884 32.0375L19.4884 32.0228L19.4352 32.0155L19.4417 32.0874L19.4111 32.1198L19.3884 32.0889L19.3659 32.0963L19.3352 32.1565L19.2918 32.0918L19.274 32.0654L19.2531 32.0537L19.2079 32.0271L18.9903 31.9773L18.8324 32.0434L18.7275 32.0389L18.5518 31.9186L18.3294 31.9054L18.2535 31.8187L18.1423 31.7747L17.986 31.6309L17.8602 31.4679L17.6022 31.2564L17.483 31.2065L17.404 31.114L17.1944 31.0362L17.0379 30.8894L16.9671 30.8513L16.6881 30.8366L16.3819 30.4682L16.2529 30.4108L16.1481 30.3932L16.0029 30.4122L15.9835 30.3889L15.8626 30.0247L15.7128 29.7869L15.5805 29.6871L15.4258 29.4419L15.2518 29.2437L15.1888 29.2262L15.1162 29.1601L15.0712 29.1483L15.0292 29.1982L14.9953 29.1909L14.918 29.0191L14.7214 28.7872L14.6439 28.7475L14.3989 28.7182L14.2184 28.746L14.1974 28.6799L14.0587 28.7284L13.8265 28.6213L13.688 28.5978L13.4864 28.611L13.3235 28.5684L13.1591 28.586L13.0286 28.6947L12.8271 28.6902L12.7158 28.7196L12.6706 28.6976L12.5835 28.4143L12.5111 28.3115L12.4724 28.2557L12.3918 28.1823L12.3241 28.0369L12.1402 27.8741L12.0275 27.7242L11.7663 27.5231L11.6518 27.4659L11.5067 27.4761L11.3535 27.4321L11.152 27.4864L10.8538 27.3925L10.6861 27.3645H10.1185L9.80901 27.3718L9.70431 27.3499L9.31419 27.4144L8.74993 27.5862L8.30014 27.7257L8.19212 27.667L8.07768 27.6391L7.8971 27.4438L7.77445 27.2104L7.52302 26.8493L7.42148 26.5263L7.35221 26.4397L7.28607 26.3985L7.04095 26.243L7.0152 26.2268L6.87493 26.146L6.76693 26.1152L6.59926 26.0976L6.40742 26.1665L6.25423 26.1357L6.22842 26.0814L6.20748 26.0331L6.13332 26.0022L5.88182 25.779L5.74319 25.5706L5.661 25.5456L5.61747 25.4501L5.65289 25.3607L5.64322 25.3165L5.55458 25.183L5.59811 25.0612L5.59 24.8527L5.41431 24.4314L5.24829 24.1921L5.17571 24.0878L5.14186 24.0761L5.10478 24.1069L5.01291 23.9733Z" fill="white"/>
</svg>
