<svg width="341" height="55" viewBox="0 0 341 55" fill="none" xmlns="http://www.w3.org/2000/svg">
<path d="M71.792 26.224C70.7653 26.224 69.804 26.14 68.908 25.972C68.012 25.7853 67.1813 25.5053 66.416 25.132C65.6507 24.74 64.96 24.264 64.344 23.704L65.212 21.94C66.22 22.78 67.228 23.3773 68.236 23.732C69.2627 24.0867 70.4573 24.264 71.82 24.264C73.4067 24.264 74.6387 23.956 75.516 23.34C76.3933 22.7053 76.832 21.8187 76.832 20.68C76.832 19.9893 76.608 19.4387 76.16 19.028C75.7307 18.5987 75.1333 18.2627 74.368 18.02C73.6213 17.7587 72.772 17.516 71.82 17.292C70.868 17.0867 69.9627 16.8533 69.104 16.592C68.2453 16.312 67.48 15.9667 66.808 15.556C66.1547 15.1453 65.6413 14.6227 65.268 13.988C64.8947 13.3533 64.708 12.56 64.708 11.608C64.708 10.4693 65.0067 9.47067 65.604 8.612C66.2013 7.73467 67.0413 7.05333 68.124 6.568C69.2067 6.08267 70.4853 5.84 71.96 5.84C72.8747 5.84 73.752 5.94267 74.592 6.148C75.432 6.33467 76.2067 6.61467 76.916 6.988C77.644 7.36133 78.288 7.81867 78.848 8.36L77.952 10.124C77.0373 9.32133 76.0947 8.73333 75.124 8.36C74.1533 7.98667 73.0987 7.8 71.96 7.8C70.4107 7.8 69.1973 8.12667 68.32 8.78C67.4427 9.43333 67.004 10.348 67.004 11.524C67.004 12.252 67.2 12.84 67.592 13.288C67.984 13.736 68.5347 14.1 69.244 14.38C69.9533 14.6413 70.7653 14.884 71.68 15.108C72.6507 15.332 73.584 15.5747 74.48 15.836C75.376 16.0973 76.1693 16.424 76.86 16.816C77.5693 17.1893 78.1293 17.684 78.54 18.3C78.9507 18.8973 79.156 19.6627 79.156 20.596C79.156 21.7347 78.8573 22.724 78.26 23.564C77.6627 24.404 76.8133 25.0573 75.712 25.524C74.6107 25.9907 73.304 26.224 71.792 26.224ZM87.3152 26V8.024H80.3712V6.064H96.5832V8.024H89.6392V26H87.3152ZM99.3703 26V6.064H107.294C109.441 6.064 111.084 6.54 112.222 7.492C113.38 8.444 113.958 9.816 113.958 11.608C113.958 13.3253 113.37 14.6787 112.194 15.668C111.037 16.6387 109.404 17.124 107.294 17.124L109.366 16.732C110.094 16.732 110.72 16.9373 111.242 17.348C111.765 17.74 112.185 18.3747 112.502 19.252L115.022 26H112.586L110.122 19.364C109.805 18.524 109.366 17.9733 108.806 17.712C108.265 17.432 107.537 17.292 106.622 17.292H101.638V26H99.3703ZM101.638 15.388H107.098C108.648 15.388 109.796 15.0707 110.542 14.436C111.308 13.8013 111.69 12.868 111.69 11.636C111.69 10.404 111.317 9.48933 110.57 8.892C109.824 8.276 108.666 7.968 107.098 7.968H101.638V15.388ZM119.04 26H116.66L125.424 6.064H127.44L136.204 26H133.852L126.04 7.744H126.88L119.04 26ZM120.384 20.876L121.196 18.972H131.668L132.48 20.876H120.384ZM139.183 26V6.064H140.947L153.659 23.004L152.987 23.172V6.064H155.171V26H153.379L140.695 9.088L141.339 8.892V26H139.183ZM160.073 26V6.064H162.369V26H160.073ZM166.088 26V24.292L178.324 6.82L178.268 7.996H166.088V6.064H180.172V7.744L167.936 25.244L167.992 24.068H180.452V26H166.088ZM182.768 26V24.292L195.004 6.82L194.948 7.996H182.768V6.064H196.852V7.744L184.616 25.244L184.672 24.068H197.132V26H182.768ZM200.798 26H198.418L207.182 6.064H209.198L217.962 26H215.61L207.798 7.744H208.638L200.798 26ZM202.142 20.876L202.954 18.972H213.426L214.238 20.876H202.142ZM228.241 26V6.064H234.933C237.061 6.064 238.872 6.456 240.365 7.24C241.859 8.00533 242.997 9.13467 243.781 10.628C244.565 12.1027 244.957 13.8947 244.957 16.004C244.957 18.132 244.556 19.9427 243.753 21.436C242.969 22.9107 241.831 24.04 240.337 24.824C238.844 25.608 237.043 26 234.933 26H228.241ZM230.537 24.04H234.793C237.369 24.04 239.301 23.368 240.589 22.024C241.896 20.68 242.549 18.6733 242.549 16.004C242.549 10.684 239.964 8.024 234.793 8.024H230.537V24.04ZM249.445 12.196L248.381 11.356C248.885 10.8147 249.221 10.32 249.389 9.872C249.557 9.424 249.641 8.96667 249.641 8.5L250.313 8.948H248.269V6.064H251.153V8.108C251.153 8.87333 251.022 9.58267 250.761 10.236C250.518 10.8893 250.079 11.5427 249.445 12.196ZM254.364 26H251.984L260.748 6.064H262.764L271.528 26H269.176L261.364 7.744H262.204L254.364 26ZM255.708 20.876L256.52 18.972H266.992L267.804 20.876H255.708ZM274.507 26V6.064H276.411L284.503 24.46H283.439L291.447 6.064H293.351V26H291.223V9.088L292.091 9.2L284.755 26H283.131L275.683 9.2L276.607 9.088L276.635 26H274.507ZM306.053 26.224C303.458 26.224 301.489 25.552 300.145 24.208C298.801 22.8453 298.129 20.8387 298.129 18.188V6.064H300.397V18.384C300.397 20.344 300.873 21.8187 301.825 22.808C302.777 23.7787 304.186 24.264 306.053 24.264C307.882 24.264 309.273 23.7693 310.225 22.78C311.177 21.7907 311.653 20.3253 311.653 18.384V6.064H313.949V18.188C313.949 20.82 313.277 22.8173 311.933 24.18C310.589 25.5427 308.629 26.224 306.053 26.224ZM318.749 26V6.064H326.673C328.82 6.064 330.462 6.54 331.601 7.492C332.758 8.444 333.337 9.816 333.337 11.608C333.337 13.3253 332.749 14.6787 331.573 15.668C330.416 16.6387 328.782 17.124 326.673 17.124L328.745 16.732C329.473 16.732 330.098 16.9373 330.621 17.348C331.144 17.74 331.564 18.3747 331.881 19.252L334.401 26H331.965L329.501 19.364C329.184 18.524 328.745 17.9733 328.185 17.712C327.644 17.432 326.916 17.292 326.001 17.292H321.017V26H318.749ZM321.017 15.388H326.477C328.026 15.388 329.174 15.0707 329.921 14.436C330.686 13.8013 331.069 12.868 331.069 11.636C331.069 10.404 330.696 9.48933 329.949 8.892C329.202 8.276 328.045 7.968 326.477 7.968H321.017V15.388ZM338.163 26V6.064H340.459V26H338.163ZM69.936 52.168C68.752 52.168 67.728 51.912 66.864 51.4C66 50.888 65.328 50.168 64.848 49.24C64.384 48.312 64.152 47.216 64.152 45.952C64.152 44.704 64.392 43.608 64.872 42.664C65.352 41.704 66.032 40.96 66.912 40.432C67.792 39.904 68.832 39.64 70.032 39.64C70.848 39.64 71.632 39.784 72.384 40.072C73.152 40.344 73.784 40.728 74.28 41.224L73.632 42.664C73.04 42.2 72.456 41.856 71.88 41.632C71.32 41.392 70.736 41.272 70.128 41.272C68.912 41.272 67.944 41.68 67.224 42.496C66.52 43.312 66.168 44.464 66.168 45.952C66.168 47.424 66.52 48.56 67.224 49.36C67.928 50.16 68.896 50.56 70.128 50.56C70.72 50.56 71.304 50.448 71.88 50.224C72.456 49.984 73.04 49.632 73.632 49.168L74.28 50.608C73.768 51.088 73.12 51.472 72.336 51.76C71.568 52.032 70.768 52.168 69.936 52.168ZM81.3868 52.168C80.3148 52.168 79.3708 51.92 78.5548 51.424C77.7548 50.912 77.1308 50.192 76.6828 49.264C76.2508 48.32 76.0348 47.216 76.0348 45.952C76.0348 44.688 76.2588 43.584 76.7068 42.64C77.1548 41.696 77.7788 40.96 78.5788 40.432C79.3948 39.904 80.3308 39.64 81.3868 39.64C82.4908 39.64 83.4268 39.912 84.1948 40.456C84.9628 41 85.4828 41.776 85.7548 42.784L85.4668 42.976V39.928H87.3868V52H85.4668V48.88L85.7548 49.024C85.4828 50.032 84.9628 50.808 84.1948 51.352C83.4268 51.896 82.4908 52.168 81.3868 52.168ZM81.7708 50.56C82.9548 50.56 83.8668 50.16 84.5068 49.36C85.1468 48.544 85.4668 47.392 85.4668 45.904C85.4668 44.416 85.1388 43.272 84.4828 42.472C83.8428 41.672 82.9388 41.272 81.7708 41.272C80.5868 41.272 79.6588 41.688 78.9868 42.52C78.3308 43.336 78.0028 44.48 78.0028 45.952C78.0028 47.424 78.3308 48.56 78.9868 49.36C79.6588 50.16 80.5868 50.56 81.7708 50.56ZM95.2254 52.168C93.1934 52.168 91.5854 51.648 90.4014 50.608L91.0494 49.168C91.6894 49.664 92.3454 50.032 93.0174 50.272C93.7054 50.496 94.4654 50.608 95.2974 50.608C96.2094 50.608 96.8974 50.456 97.3614 50.152C97.8414 49.832 98.0814 49.376 98.0814 48.784C98.0814 48.304 97.9214 47.928 97.6014 47.656C97.2814 47.368 96.7534 47.136 96.0174 46.96L93.9774 46.48C92.9694 46.256 92.1854 45.856 91.6254 45.28C91.0814 44.704 90.8094 44.016 90.8094 43.216C90.8094 42.512 91.0014 41.896 91.3854 41.368C91.7694 40.824 92.3054 40.4 92.9934 40.096C93.6814 39.792 94.4974 39.64 95.4414 39.64C96.2894 39.64 97.0894 39.776 97.8414 40.048C98.5934 40.32 99.2254 40.712 99.7374 41.224L99.0894 42.64C98.5134 42.16 97.9214 41.808 97.3134 41.584C96.7214 41.344 96.0974 41.224 95.4414 41.224C94.5774 41.224 93.9054 41.392 93.4254 41.728C92.9614 42.064 92.7294 42.52 92.7294 43.096C92.7294 43.592 92.8734 43.984 93.1614 44.272C93.4654 44.56 93.9454 44.784 94.6014 44.944L96.6414 45.448C97.7774 45.688 98.6094 46.088 99.1374 46.648C99.6814 47.192 99.9534 47.888 99.9534 48.736C99.9534 49.776 99.5294 50.608 98.6814 51.232C97.8334 51.856 96.6814 52.168 95.2254 52.168ZM107.684 52.168C106.612 52.168 105.668 51.92 104.852 51.424C104.052 50.912 103.428 50.192 102.98 49.264C102.548 48.32 102.332 47.216 102.332 45.952C102.332 44.688 102.556 43.584 103.004 42.64C103.452 41.696 104.076 40.96 104.876 40.432C105.692 39.904 106.628 39.64 107.684 39.64C108.788 39.64 109.724 39.912 110.492 40.456C111.26 41 111.78 41.776 112.052 42.784L111.764 42.976V39.928H113.684V52H111.764V48.88L112.052 49.024C111.78 50.032 111.26 50.808 110.492 51.352C109.724 51.896 108.788 52.168 107.684 52.168ZM108.068 50.56C109.252 50.56 110.164 50.16 110.804 49.36C111.444 48.544 111.764 47.392 111.764 45.904C111.764 44.416 111.436 43.272 110.78 42.472C110.14 41.672 109.236 41.272 108.068 41.272C106.884 41.272 105.956 41.688 105.284 42.52C104.628 43.336 104.3 44.48 104.3 45.952C104.3 47.424 104.628 48.56 105.284 49.36C105.956 50.16 106.884 50.56 108.068 50.56ZM127.252 52L122.116 39.952H124.156L128.524 50.584H127.948L132.364 39.952H134.308L129.1 52H127.252ZM140.942 52.168C139.87 52.168 138.926 51.92 138.11 51.424C137.31 50.912 136.686 50.192 136.238 49.264C135.806 48.32 135.59 47.216 135.59 45.952C135.59 44.688 135.814 43.584 136.262 42.64C136.71 41.696 137.334 40.96 138.134 40.432C138.95 39.904 139.886 39.64 140.942 39.64C142.046 39.64 142.982 39.912 143.75 40.456C144.518 41 145.038 41.776 145.31 42.784L145.022 42.976V39.928H146.942V52H145.022V48.88L145.31 49.024C145.038 50.032 144.518 50.808 143.75 51.352C142.982 51.896 142.046 52.168 140.942 52.168ZM141.326 50.56C142.51 50.56 143.422 50.16 144.062 49.36C144.702 48.544 145.022 47.392 145.022 45.904C145.022 44.416 144.694 43.272 144.038 42.472C143.398 41.672 142.494 41.272 141.326 41.272C140.142 41.272 139.214 41.688 138.542 42.52C137.886 43.336 137.558 44.48 137.558 45.952C137.558 47.424 137.886 48.56 138.542 49.36C139.214 50.16 140.142 50.56 141.326 50.56ZM155.764 52.168C154.58 52.168 153.556 51.912 152.692 51.4C151.828 50.888 151.156 50.168 150.676 49.24C150.212 48.312 149.98 47.216 149.98 45.952C149.98 44.704 150.22 43.608 150.7 42.664C151.18 41.704 151.86 40.96 152.74 40.432C153.62 39.904 154.66 39.64 155.86 39.64C156.676 39.64 157.46 39.784 158.212 40.072C158.98 40.344 159.612 40.728 160.108 41.224L159.46 42.664C158.868 42.2 158.284 41.856 157.708 41.632C157.148 41.392 156.564 41.272 155.956 41.272C154.74 41.272 153.772 41.68 153.052 42.496C152.348 43.312 151.996 44.464 151.996 45.952C151.996 47.424 152.348 48.56 153.052 49.36C153.756 50.16 154.724 50.56 155.956 50.56C156.548 50.56 157.132 50.448 157.708 50.224C158.284 49.984 158.868 49.632 159.46 49.168L160.108 50.608C159.596 51.088 158.948 51.472 158.164 51.76C157.396 52.032 156.596 52.168 155.764 52.168ZM167.215 52.168C166.143 52.168 165.199 51.92 164.383 51.424C163.583 50.912 162.959 50.192 162.511 49.264C162.079 48.32 161.863 47.216 161.863 45.952C161.863 44.688 162.087 43.584 162.535 42.64C162.983 41.696 163.607 40.96 164.407 40.432C165.223 39.904 166.159 39.64 167.215 39.64C168.319 39.64 169.255 39.912 170.023 40.456C170.791 41 171.311 41.776 171.583 42.784L171.295 42.976V39.928H173.215V52H171.295V48.88L171.583 49.024C171.311 50.032 170.791 50.808 170.023 51.352C169.255 51.896 168.319 52.168 167.215 52.168ZM167.599 50.56C168.783 50.56 169.695 50.16 170.335 49.36C170.975 48.544 171.295 47.392 171.295 45.904C171.295 44.416 170.967 43.272 170.311 42.472C169.671 41.672 168.767 41.272 167.599 41.272C166.415 41.272 165.487 41.688 164.815 42.52C164.159 43.336 163.831 44.48 163.831 45.952C163.831 47.424 164.159 48.56 164.815 49.36C165.487 50.16 166.415 50.56 167.599 50.56ZM176.974 52V43.312C176.974 42.752 176.958 42.192 176.926 41.632C176.91 41.056 176.862 40.488 176.782 39.928H178.63L178.846 42.424L178.606 42.616C178.942 41.64 179.502 40.904 180.286 40.408C181.07 39.896 181.974 39.64 182.998 39.64C185.894 39.64 187.342 41.232 187.342 44.416V52H185.398V44.512C185.398 43.392 185.174 42.576 184.726 42.064C184.278 41.536 183.574 41.272 182.614 41.272C181.494 41.272 180.598 41.616 179.926 42.304C179.254 42.992 178.918 43.92 178.918 45.088V52H176.974ZM190.341 52V50.656L198.597 40.672L198.909 41.464H190.605V39.928H200.277V41.344L192.069 51.28L191.805 50.464H200.541V52H190.341ZM213.041 50.56C212.513 51.056 211.833 51.448 211.001 51.736C210.185 52.024 209.345 52.168 208.481 52.168C207.233 52.168 206.153 51.92 205.241 51.424C204.345 50.928 203.649 50.216 203.153 49.288C202.673 48.344 202.433 47.224 202.433 45.928C202.433 44.68 202.673 43.584 203.153 42.64C203.633 41.696 204.297 40.96 205.145 40.432C206.009 39.904 207.001 39.64 208.121 39.64C209.193 39.64 210.113 39.88 210.881 40.36C211.649 40.824 212.233 41.496 212.633 42.376C213.049 43.256 213.257 44.312 213.257 45.544V45.904H204.137V44.632H212.153L211.529 45.52C211.561 44.112 211.281 43.032 210.689 42.28C210.113 41.528 209.265 41.152 208.145 41.152C206.977 41.152 206.057 41.568 205.385 42.4C204.729 43.216 204.401 44.352 204.401 45.808C204.401 47.376 204.745 48.56 205.433 49.36C206.137 50.16 207.161 50.56 208.505 50.56C209.209 50.56 209.881 50.448 210.521 50.224C211.177 49.984 211.801 49.624 212.393 49.144L213.041 50.56Z" fill="#FFCF00"/>
<circle cx="27" cy="28" r="26" fill="#FFCF00" stroke="#FFCF00" stroke-width="2"/>
<path d="M5.01291 24.9733L5.01127 24.9425L5 24.9013L5.00969 24.8808L5.00803 24.8294L5.10313 24.7825L5.18216 24.6914L5.24985 24.7531L5.28693 24.7267L5.3514 24.6825L5.44658 24.5696L5.53364 24.364L5.48523 24.2583L5.49814 24.2099L5.61905 24.0998L5.63675 23.9691L5.74799 23.7944L5.74642 23.6873L5.67383 23.5918L5.57228 23.5506L5.54812 23.4714L5.50617 23.4304L5.52395 23.3363L5.4417 23.2777L5.43201 23.213L5.54009 23.0192L5.83025 22.4907L5.90441 22.2969L5.89796 22.2352L5.87858 22.1016L5.9318 22.0018L6.05437 21.8844L6.06404 21.7846L6.05271 21.6261L6.04948 21.5644L6.00115 21.5203L5.86252 21.5144L5.89315 21.4249L6.00115 21.4513L6.13009 21.4426L6.19779 21.4117L6.33327 21.2297L6.45418 21.1782L6.54282 21.0535L6.64279 20.9683L6.75079 20.757L6.80881 20.6968L6.91523 20.6483L7.00064 20.6497L7.34574 20.7128L7.55042 20.6601L7.78908 20.5587L7.87616 20.5L7.99533 20.3502L8.10507 20.2798L8.12113 20.2474L8.07437 20.1535L8.08727 20.0345L8.23559 19.9656L8.32265 19.9597L8.51125 20.0742L8.62083 20.0771L8.70789 20.0493L8.87729 19.8936L8.95145 19.7644L8.92232 19.7072L8.95618 19.6324L9.03678 19.5649L9.05773 19.5075L9.00781 19.4416L8.9546 19.3725L8.76599 19.0085L8.75638 18.9468L8.81118 18.8396L8.86754 18.7897L8.9546 18.7603L9.01096 18.772L9.04009 18.8146L8.98357 18.8572L8.98199 18.8968L9.04654 18.9482L9.36566 18.9365L9.41888 18.9012L9.45761 18.913L9.48013 19.1054L9.45604 19.2962L9.49791 19.3329L9.61079 19.3489L9.6785 19.4988L9.74934 19.5574L9.77359 19.6367L9.74776 19.7733L9.78162 19.9877L10.0315 20.4457L10.1847 20.4926L10.2476 20.5543L10.312 20.7408L10.3556 20.7702L10.4169 20.7745L10.4491 20.8215L10.6071 20.8582L10.6538 20.9669L10.7313 20.9756L10.8006 20.9228L10.8375 20.9271L10.8779 20.9565L10.8763 21.0579L10.9021 21.1224L10.9602 21.1636L11.2277 21.2958L11.3971 21.3104L11.4164 21.2883L11.5405 21.281L11.8725 21.2047L12.229 21.0784L12.7561 20.754L13.0834 20.5631L13.1881 20.5469L13.3107 20.4853L13.3687 20.4222L13.4622 20.2474L13.4299 20.0126L13.2511 19.6192L13.1705 19.559L13.1752 19.5296L13.2462 19.5061L13.3074 19.4532L13.3978 19.4444L13.4283 19.3226L13.4784 19.2638L13.6154 19.1904L13.5493 19.0774L13.5477 19.0128L13.6234 18.9277L13.7524 18.7824L13.875 18.7132L14.0861 18.6883L14.2102 18.7426L14.3086 18.8308L14.3763 18.8469L14.4843 18.7779L14.5326 18.797L14.6439 18.9937L14.723 19.0275L14.8615 19.032L15.0969 18.9761L15.3598 18.8484L15.4742 18.772L15.5484 18.6765L15.5838 18.4755L15.6548 18.4799L15.7176 18.5401L15.7853 18.5591L15.8789 18.5283L15.974 18.5415L16.0191 18.5254L16.0739 18.433L16.1465 18.4168L16.3044 18.2979L16.4028 18.2671L16.4431 18.2714L16.5286 18.2024H16.5736L16.6382 18.3198L16.7059 18.3462L16.7687 18.3697L16.7622 18.5048V18.5137L16.8831 18.637L16.9299 18.684L17.0847 18.6737L17.1267 18.6958L17.2412 18.9012L17.2492 19.0525L17.32 19.2242L17.3427 19.3505L17.2926 19.5414L17.2911 19.5545L17.2815 19.6837L17.3298 19.8261L17.4443 19.9451L17.7925 20.1446L18.0553 20.155L18.2003 20.2166L18.4712 20.1947L18.7179 20.1213L18.8307 20.0919L19.0386 19.9641L19.1016 19.8437L19.2321 19.9039L19.3998 19.9479L19.4481 19.9891L19.453 20.1051L19.5207 20.2357L19.4917 20.4163L19.5432 20.5L19.4933 20.6365L19.4998 20.7114L19.5723 20.7819L19.6594 20.8803L19.8592 21.1107L19.9705 21.193L20.1816 21.2824L20.3058 21.3031L20.5929 21.535L20.8233 21.5849L20.8895 21.6553L21.1473 21.7919L21.3989 21.8345L21.4972 21.8374L21.5005 21.8404L21.5778 21.88L21.7535 21.899V21.9284L21.6762 21.9623L21.6971 22.0209L21.7116 22.0239L21.9518 22.0782L22.0986 22.1649L22.1888 22.175L22.6257 22.115L22.8755 22.0797L23.1594 21.9872L23.3222 21.9769L23.572 21.9197L23.7462 21.8418L24.3668 21.5071L24.6233 21.3353L24.7005 21.2722L24.8038 21.2325L24.9085 21.2355L25.0956 21.1445L25.218 21.1871L25.339 21.1915L25.4567 21.1372L25.605 21.1196L25.6968 21.0549L25.7792 21.0565L25.9903 21.1474L26.0758 21.2252L26.2902 21.3148L26.3982 21.3617L26.6754 21.3558L26.8689 21.4264L27.0157 21.4205L27.2123 21.3734L27.2624 21.3353L27.3172 21.2003L27.3913 21.2165L27.6556 21.3838L27.8587 21.3868L27.891 21.4132L28.1088 21.4249L28.2651 21.4953L28.4263 21.5042L28.5214 21.5614L28.6036 21.5717L28.8002 21.5746L28.9438 21.5247L29.0373 21.5379L29.2807 21.5937L29.3709 21.5687L29.6016 21.5585L29.9481 21.4292L30.3077 21.4704L30.6784 21.3177L30.9396 21.1356L31.1202 21.0344L31.1911 21.0431L31.3233 21.1386L31.6651 21.1577L31.7715 21.1327H31.9472L32.3278 21.0198L32.7484 20.7495L33.1468 20.757L33.3675 20.6027L33.5739 20.6043L33.6707 20.5676L33.972 20.3488L34.1865 20.2592L34.6024 19.7585L35.0233 19.3094L35.0974 19.1788L35.1361 19.1508L35.2038 19.1435L35.2441 19.1816L35.523 19.2786L35.7294 19.2903L35.8696 19.2565L36.3952 19.1214L36.6321 19.0304L36.8659 19.0569L37.0384 18.9805L37.3883 18.7163L37.4495 18.7016L37.5076 18.7426L37.5849 18.8734L37.6882 18.916L37.7477 18.9409L37.8042 19.0539L38.0719 19.3285L38.1024 19.3593L38.3168 19.3578L38.4571 19.3564H38.57L38.67 19.3901L38.7909 19.3915L39.0521 19.3475L39.1374 19.399L39.2583 19.5545L39.2536 19.6705L39.3035 19.7042L39.7566 19.854L40.0032 19.7336L40.0726 19.6823L40.2966 19.512L40.4868 19.4649L40.6883 19.3446L41.1962 18.8572L41.3929 18.5224L41.4009 18.5078L41.4042 18.5019L41.4171 18.4506L41.4396 18.3521L41.4429 18.3448L41.4799 18.2553L41.5605 18.0644L41.538 17.8368L41.5621 17.7121L41.5187 17.5976L41.3735 17.5477L41.4138 17.4846H41.5621L41.754 17.8971L41.725 18.1187L41.7073 18.2464L41.7008 18.2979L41.6799 18.333L41.6556 18.3728L41.7088 18.3991L41.8331 18.4622L42.0796 18.4989L42.2457 18.5137L42.3361 18.4989L42.7616 18.3697L43.0001 18.3405L43.1678 18.2831L43.9224 17.9558L44.2513 17.8119L44.5043 17.6505L44.8752 17.3862L45.1621 17.1439L45.3604 17.0367L45.4943 17L45.6152 17.0089L45.7844 17.0969L46.0875 17.2936L46.4453 17.467L46.5567 17.4905L46.6936 17.4816L46.971 17.5272L47 17.5505L46.9887 17.6006L46.9032 17.6651L46.36 17.8163L46.1149 17.9749L45.9715 18.1803L45.8909 18.433L45.857 18.5078L45.7521 18.7398L45.7602 18.7882L45.8167 18.8043L45.9038 18.7045L45.8795 18.6487L45.8924 18.6238L45.9601 18.6414L45.9988 18.6899L45.9826 18.7793L45.9118 18.9247L45.7699 19.1038L45.6216 19.2932L45.5651 19.3637L45.383 19.7042L45.1621 20.1462L45.0574 20.4266L44.9171 20.6688L44.6753 21.008L44.3544 21.2708L44.2787 21.5174L44.1593 21.6334L44.1126 21.7258L43.916 21.9226L43.5532 22.3601L43.4855 22.4291L43.3984 22.5921L43.1484 22.8916L43.0567 23.0133L42.9986 23.1808L42.826 23.332L42.7407 23.4861L42.4505 23.7621L42.3973 24.0014L42.4118 24.0675L42.4214 24.1188L42.3731 24.207L42.3279 24.2362L42.3102 24.2466L42.2296 24.2334L42.0796 24.4359L42.0602 24.4639L42.0651 24.5152L42.1087 24.5592L41.9201 24.7281L41.8491 24.8265L41.8266 24.825L41.8331 24.8543L41.4879 25.3271L41.2027 25.9026L41.2043 25.9128L41.2091 25.9452L41.2172 26.0068L41.2461 26.0259L41.2671 26.0391L41.2993 26.1741L41.4042 26.3224L41.3833 26.3929L41.1849 26.7115L41.1107 26.9919L41.1058 27.2048L41.0849 27.2547L40.8464 27.5394L40.8061 27.7215L40.7818 27.8302L40.7722 28.1076L40.8157 28.3793L40.7852 28.4805L40.7028 28.573L40.6674 28.7022L40.5529 28.7727L40.3917 28.9974L40.332 29.015L40.1644 29.172L40.0661 29.1926L40.0274 29.2277L40.0499 29.2792L40.0387 29.3174L40.0225 29.3378L39.8693 29.539L39.7887 29.6432L39.7566 29.6829L39.6647 29.8032L39.6453 29.8987L39.642 29.9149V29.9267V30.1262V30.1307L39.6437 30.1864V30.2173L39.6469 30.2819L39.6905 30.9132L39.6888 31.1186L39.6582 31.2009L39.6662 31.5371L39.721 31.8395L39.705 32.2608L39.7484 32.465L39.8452 32.6485L40.0886 32.6735L40.3176 32.7262L40.5369 32.9817L40.5836 32.9861L40.6158 32.989L40.6642 32.901L40.8544 32.989L40.9027 33.0448L40.8947 33.0727L40.9882 33.0772L41.0704 32.9949L41.0769 32.9142L41.1591 32.9215L41.2381 32.9904L41.3042 33.1593L41.4316 33.3092L41.6122 33.4515L41.7282 33.6438L41.8104 33.7275L41.7476 33.8376L41.7298 33.8713L41.6202 33.8875L41.5363 33.7906L41.459 33.7612L41.4283 33.7863L41.4218 34.074L41.3815 34.1458L41.3381 34.143L41.3107 34.0887L41.3494 33.955L41.3477 33.8376L41.3332 33.8082L41.3138 33.7701L41.2559 33.7245L41.1865 33.7099L41.006 33.8068L40.9738 33.8713L41.006 33.9873L40.9882 34.0416L40.8738 34.2105L40.8947 34.2251L40.9479 34.5305L41.0027 34.6319L41.1205 34.7507L41.0802 34.8065L41.1768 35.0415L41.251 35.1368L41.3559 35.1486L41.4154 35.1295L41.4509 35.0825L41.4476 35.0048L41.4784 34.9827L41.5959 35.0899L41.6041 35.106L41.6362 35.1735L41.6057 35.2059L41.4654 35.1824L41.4009 35.2L41.3606 35.3365L41.3993 35.4643L41.4557 35.5494L41.5959 35.6389L41.6444 35.7315L41.7669 35.7506L41.8491 35.8151L41.9636 35.8283L42.0894 35.7725L42.2522 35.8078L42.3247 35.8224L42.3617 35.8783L42.3924 36.1294L42.3956 36.2658V36.2703L42.3167 36.4567L42.3666 36.5256L42.3376 36.6475L42.315 36.6607L42.2666 36.5771L42.1393 36.5301L42.1054 36.5418L42.0587 36.6593L42.1152 36.8061L42.2022 36.9427L42.2522 36.9573L42.4423 36.8604L42.4682 36.8693L42.6117 36.9192L42.7035 37.1613L42.86 37.3787L42.8325 37.4417L42.5906 37.4124H42.5875L42.4811 37.3185L42.3779 37.317L42.3214 37.3639L42.2377 37.4359L42.1925 37.4417L42.1216 37.3947L42.0393 37.4168L41.9587 37.4667L41.9248 37.5269L41.9604 37.7633L41.8959 37.844L41.8652 37.9511L41.5235 37.9791L41.3606 38.1083L41.3123 38.1186L41.2172 38.0921L41.1817 38.2155L41.0655 38.2375L40.9738 38.327L40.7916 38.6501L40.5287 38.8028L40.2982 39.3342L40.253 39.4868L40.2514 39.5309L40.0468 39.7349L39.9468 39.8935L39.9 40.0932L39.9355 40.3222L39.9226 40.4485L39.8533 40.5996L39.7678 40.6539L39.7791 40.836L39.7388 40.9021V40.9607V40.9784L39.8114 41.1296L39.8355 41.2999L39.9274 41.4746L40.0644 41.5731L40.0258 41.6229L40.0918 41.799L40.0499 42.0575L40.0742 42.1191L40.2338 42.3394L40.295 42.4714L40.2998 42.5405L40.2144 42.7299L40.1918 42.7812L40.1628 42.7798L40.1467 42.6608L40.0661 42.6432L39.9564 42.677L39.9226 42.7049L39.8871 42.8194L39.7936 42.8341L39.6856 42.9544L39.6099 42.9956L39.5502 43L39.2503 42.7812L39.1456 42.564L39.0359 42.4318L38.8762 42.2777L38.8441 42.2629L38.7715 42.2262L38.499 42.1852L38.4587 42.2072L38.4507 42.2102L38.3249 42.3731L38.2605 42.3996L38.0719 42.3848L37.988 42.3775L37.8348 42.3422L37.751 42.2895L37.5655 42.0721L37.4221 41.962L37.1142 41.8182L36.7579 41.7639L36.6338 41.7844L36.5548 41.8211L36.4355 41.9458L36.2936 41.9547L36.2146 42.0135L36.1437 42.0281L36.0373 42.0135L35.9808 42.0368L35.8309 42.1705L35.7438 42.2043L35.6713 42.1895L35.5859 42.1177L35.5004 42.0869L35.3359 42.0766L35.294 42.0281L35.186 41.9077L35.1361 41.8989L35.0313 41.9914L34.9411 41.9371L34.8587 41.9606L34.7233 41.9503L34.5848 41.9987L34.4171 41.9342L34.388 41.9239L34.243 41.6611L34.1333 41.5451L33.6932 41.2574L33.4224 41.1825L33.3354 41.1355L33.1305 41.0445L32.6549 40.9299L32.6034 40.9285L32.5275 40.9755L32.3438 40.9212L32.1085 40.8668L31.9101 40.8463L31.7731 40.7523L31.6635 40.5351L31.57 40.4455L31.4652 40.3986L31.4427 40.105L31.3362 39.754L31.2443 39.5235L31.2153 39.4516L31.1556 39.3474L31.051 39.2564L30.9606 39.1197L30.8445 38.8364L30.7688 38.7762L30.7268 38.6059L30.5656 38.3358L30.1449 37.7911L29.8692 37.4344L29.2033 36.8192L28.8534 36.6373L28.6697 36.5081L28.4473 36.4757L28.4199 36.4244L28.4021 36.3906L28.2199 36.2922L28.1683 36.2644L27.7314 36.1132L27.4831 36L27.309 35.9913L26.9995 35.9165L26.8157 35.8739L26.3902 35.8092L25.9952 35.8548L25.6469 35.8108L25.086 35.8181L24.9778 35.8504L24.8473 35.9869L24.8101 36.0134L24.807 36.0162L24.8054 36.0177L24.5974 35.9943L24.5491 35.9899L24.4088 35.9957L24.3217 36.0251L24.1363 36.0089L24.0267 35.9576L23.8784 35.9282L23.6945 35.7534L23.6607 35.6537L23.5801 35.5288L23.2835 35.2911L23.1723 35.2514L22.8949 35.2029L22.6822 35.2147L22.6257 35.2455L22.4048 35.1853L22.2598 35.1765L22.1276 35.0972L21.9857 34.9049L21.8761 34.8109L21.7439 34.7889L21.6519 34.7479L21.2731 34.4938L21.1103 34.4512L20.9701 34.1797L20.8329 33.9844L20.7282 33.8905L20.6283 33.8743L20.5621 33.8317L20.28 33.5543L20.0237 33.4148L19.9736 33.3325L19.8253 33.1843L19.5884 33.0375L19.4884 33.0228L19.4352 33.0155L19.4417 33.0874L19.4111 33.1198L19.3884 33.0889L19.3659 33.0963L19.3352 33.1565L19.2918 33.0918L19.274 33.0654L19.2531 33.0537L19.2079 33.0271L18.9903 32.9773L18.8324 33.0434L18.7275 33.0389L18.5518 32.9186L18.3294 32.9054L18.2535 32.8187L18.1423 32.7747L17.986 32.6309L17.8602 32.4679L17.6022 32.2564L17.483 32.2065L17.404 32.114L17.1944 32.0362L17.0379 31.8894L16.9671 31.8513L16.6881 31.8366L16.3819 31.4682L16.2529 31.4108L16.1481 31.3932L16.0029 31.4122L15.9835 31.3889L15.8626 31.0247L15.7128 30.7869L15.5805 30.6871L15.4258 30.4419L15.2518 30.2437L15.1888 30.2262L15.1162 30.1601L15.0712 30.1483L15.0292 30.1982L14.9953 30.1909L14.918 30.0191L14.7214 29.7872L14.6439 29.7475L14.3989 29.7182L14.2184 29.746L14.1974 29.6799L14.0587 29.7284L13.8265 29.6213L13.688 29.5978L13.4864 29.611L13.3235 29.5684L13.1591 29.586L13.0286 29.6947L12.8271 29.6902L12.7158 29.7196L12.6706 29.6976L12.5835 29.4143L12.5111 29.3115L12.4724 29.2557L12.3918 29.1823L12.3241 29.0369L12.1402 28.8741L12.0275 28.7242L11.7663 28.5231L11.6518 28.4659L11.5067 28.4761L11.3535 28.4321L11.152 28.4864L10.8538 28.3925L10.6861 28.3645H10.1185L9.80901 28.3718L9.70431 28.3499L9.31419 28.4144L8.74993 28.5862L8.30014 28.7257L8.19212 28.667L8.07768 28.6391L7.8971 28.4438L7.77445 28.2104L7.52302 27.8493L7.42148 27.5263L7.35221 27.4397L7.28607 27.3985L7.04095 27.243L7.0152 27.2268L6.87493 27.146L6.76693 27.1152L6.59926 27.0976L6.40742 27.1665L6.25423 27.1357L6.22842 27.0814L6.20748 27.0331L6.13332 27.0022L5.88182 26.779L5.74319 26.5706L5.661 26.5456L5.61747 26.4501L5.65289 26.3607L5.64322 26.3165L5.55458 26.183L5.59811 26.0612L5.59 25.8527L5.41431 25.4314L5.24829 25.1921L5.17571 25.0878L5.14186 25.0761L5.10478 25.1069L5.01291 24.9733Z" fill="white"/>
</svg>
