<svg width="336" height="55" viewBox="0 0 336 55" fill="none" xmlns="http://www.w3.org/2000/svg">
<path d="M71.792 26.224C70.7653 26.224 69.804 26.14 68.908 25.972C68.012 25.7853 67.1813 25.5053 66.416 25.132C65.6507 24.74 64.96 24.264 64.344 23.704L65.212 21.94C66.22 22.78 67.228 23.3773 68.236 23.732C69.2627 24.0867 70.4573 24.264 71.82 24.264C73.4067 24.264 74.6387 23.956 75.516 23.34C76.3933 22.7053 76.832 21.8187 76.832 20.68C76.832 19.9893 76.608 19.4387 76.16 19.028C75.7307 18.5987 75.1333 18.2627 74.368 18.02C73.6213 17.7587 72.772 17.516 71.82 17.292C70.868 17.0867 69.9627 16.8533 69.104 16.592C68.2453 16.312 67.48 15.9667 66.808 15.556C66.1547 15.1453 65.6413 14.6227 65.268 13.988C64.8947 13.3533 64.708 12.56 64.708 11.608C64.708 10.4693 65.0067 9.47067 65.604 8.612C66.2013 7.73467 67.0413 7.05333 68.124 6.568C69.2067 6.08267 70.4853 5.84 71.96 5.84C72.8747 5.84 73.752 5.94267 74.592 6.148C75.432 6.33467 76.2067 6.61467 76.916 6.988C77.644 7.36133 78.288 7.81867 78.848 8.36L77.952 10.124C77.0373 9.32133 76.0947 8.73333 75.124 8.36C74.1533 7.98667 73.0987 7.8 71.96 7.8C70.4107 7.8 69.1973 8.12667 68.32 8.78C67.4427 9.43333 67.004 10.348 67.004 11.524C67.004 12.252 67.2 12.84 67.592 13.288C67.984 13.736 68.5347 14.1 69.244 14.38C69.9533 14.6413 70.7653 14.884 71.68 15.108C72.6507 15.332 73.584 15.5747 74.48 15.836C75.376 16.0973 76.1693 16.424 76.86 16.816C77.5693 17.1893 78.1293 17.684 78.54 18.3C78.9507 18.8973 79.156 19.6627 79.156 20.596C79.156 21.7347 78.8573 22.724 78.26 23.564C77.6627 24.404 76.8133 25.0573 75.712 25.524C74.6107 25.9907 73.304 26.224 71.792 26.224ZM87.3152 26V8.024H80.3712V6.064H96.5832V8.024H89.6392V26H87.3152ZM99.3703 26V6.064H107.294C109.441 6.064 111.084 6.54 112.222 7.492C113.38 8.444 113.958 9.816 113.958 11.608C113.958 13.3253 113.37 14.6787 112.194 15.668C111.037 16.6387 109.404 17.124 107.294 17.124L109.366 16.732C110.094 16.732 110.72 16.9373 111.242 17.348C111.765 17.74 112.185 18.3747 112.502 19.252L115.022 26H112.586L110.122 19.364C109.805 18.524 109.366 17.9733 108.806 17.712C108.265 17.432 107.537 17.292 106.622 17.292H101.638V26H99.3703ZM101.638 15.388H107.098C108.648 15.388 109.796 15.0707 110.542 14.436C111.308 13.8013 111.69 12.868 111.69 11.636C111.69 10.404 111.317 9.48933 110.57 8.892C109.824 8.276 108.666 7.968 107.098 7.968H101.638V15.388ZM119.04 26H116.66L125.424 6.064H127.44L136.204 26H133.852L126.04 7.744H126.88L119.04 26ZM120.384 20.876L121.196 18.972H131.668L132.48 20.876H120.384ZM139.183 26V6.064H140.947L153.659 23.004L152.987 23.172V6.064H155.171V26H153.379L140.695 9.088L141.339 8.892V26H139.183ZM160.073 26V6.064H162.369V26H160.073ZM166.088 26V24.292L178.324 6.82L178.268 7.996H166.088V6.064H180.172V7.744L167.936 25.244L167.992 24.068H180.452V26H166.088ZM182.768 26V24.292L195.004 6.82L194.948 7.996H182.768V6.064H196.852V7.744L184.616 25.244L184.672 24.068H197.132V26H182.768ZM200.652 26V6.064H202.948V26H200.652ZM215.171 26V6.064H221.863C223.991 6.064 225.802 6.456 227.295 7.24C228.788 8.00533 229.927 9.13467 230.711 10.628C231.495 12.1027 231.887 13.8947 231.887 16.004C231.887 18.132 231.486 19.9427 230.683 21.436C229.899 22.9107 228.76 24.04 227.267 24.824C225.774 25.608 223.972 26 221.863 26H215.171ZM217.467 24.04H221.723C224.299 24.04 226.231 23.368 227.519 22.024C228.826 20.68 229.479 18.6733 229.479 16.004C229.479 10.684 226.894 8.024 221.723 8.024H217.467V24.04ZM236.374 12.196L235.31 11.356C235.814 10.8147 236.15 10.32 236.318 9.872C236.486 9.424 236.57 8.96667 236.57 8.5L237.242 8.948H235.198V6.064H238.082V8.108C238.082 8.87333 237.952 9.58267 237.69 10.236C237.448 10.8893 237.009 11.5427 236.374 12.196ZM241.294 26H238.914L247.678 6.064H249.694L258.458 26H256.106L248.294 7.744H249.134L241.294 26ZM242.638 20.876L243.45 18.972H253.922L254.734 20.876H242.638ZM261.437 26V6.064H263.341L271.433 24.46H270.369L278.377 6.064H280.281V26H278.153V9.088L279.021 9.2L271.685 26H270.061L262.613 9.2L263.537 9.088L263.565 26H261.437ZM292.982 26.224C290.388 26.224 288.418 25.552 287.074 24.208C285.73 22.8453 285.058 20.8387 285.058 18.188V6.064H287.326V18.384C287.326 20.344 287.802 21.8187 288.754 22.808C289.706 23.7787 291.116 24.264 292.982 24.264C294.812 24.264 296.202 23.7693 297.154 22.78C298.106 21.7907 298.582 20.3253 298.582 18.384V6.064H300.878V18.188C300.878 20.82 300.206 22.8173 298.862 24.18C297.518 25.5427 295.558 26.224 292.982 26.224ZM305.679 26V6.064H313.603C315.75 6.064 317.392 6.54 318.531 7.492C319.688 8.444 320.267 9.816 320.267 11.608C320.267 13.3253 319.679 14.6787 318.503 15.668C317.346 16.6387 315.712 17.124 313.603 17.124L315.675 16.732C316.403 16.732 317.028 16.9373 317.551 17.348C318.074 17.74 318.494 18.3747 318.811 19.252L321.331 26H318.895L316.431 19.364C316.114 18.524 315.675 17.9733 315.115 17.712C314.574 17.432 313.846 17.292 312.931 17.292H307.947V26H305.679ZM307.947 15.388H313.407C314.956 15.388 316.104 15.0707 316.851 14.436C317.616 13.8013 317.999 12.868 317.999 11.636C317.999 10.404 317.626 9.48933 316.879 8.892C316.132 8.276 314.975 7.968 313.407 7.968H307.947V15.388ZM325.093 26V6.064H327.389V26H325.093ZM69.936 52.168C68.752 52.168 67.728 51.912 66.864 51.4C66 50.888 65.328 50.168 64.848 49.24C64.384 48.312 64.152 47.216 64.152 45.952C64.152 44.704 64.392 43.608 64.872 42.664C65.352 41.704 66.032 40.96 66.912 40.432C67.792 39.904 68.832 39.64 70.032 39.64C70.848 39.64 71.632 39.784 72.384 40.072C73.152 40.344 73.784 40.728 74.28 41.224L73.632 42.664C73.04 42.2 72.456 41.856 71.88 41.632C71.32 41.392 70.736 41.272 70.128 41.272C68.912 41.272 67.944 41.68 67.224 42.496C66.52 43.312 66.168 44.464 66.168 45.952C66.168 47.424 66.52 48.56 67.224 49.36C67.928 50.16 68.896 50.56 70.128 50.56C70.72 50.56 71.304 50.448 71.88 50.224C72.456 49.984 73.04 49.632 73.632 49.168L74.28 50.608C73.768 51.088 73.12 51.472 72.336 51.76C71.568 52.032 70.768 52.168 69.936 52.168ZM81.3868 52.168C80.3148 52.168 79.3708 51.92 78.5548 51.424C77.7548 50.912 77.1308 50.192 76.6828 49.264C76.2508 48.32 76.0348 47.216 76.0348 45.952C76.0348 44.688 76.2588 43.584 76.7068 42.64C77.1548 41.696 77.7788 40.96 78.5788 40.432C79.3948 39.904 80.3308 39.64 81.3868 39.64C82.4908 39.64 83.4268 39.912 84.1948 40.456C84.9628 41 85.4828 41.776 85.7548 42.784L85.4668 42.976V39.928H87.3868V52H85.4668V48.88L85.7548 49.024C85.4828 50.032 84.9628 50.808 84.1948 51.352C83.4268 51.896 82.4908 52.168 81.3868 52.168ZM81.7708 50.56C82.9548 50.56 83.8668 50.16 84.5068 49.36C85.1468 48.544 85.4668 47.392 85.4668 45.904C85.4668 44.416 85.1388 43.272 84.4828 42.472C83.8428 41.672 82.9388 41.272 81.7708 41.272C80.5868 41.272 79.6588 41.688 78.9868 42.52C78.3308 43.336 78.0028 44.48 78.0028 45.952C78.0028 47.424 78.3308 48.56 78.9868 49.36C79.6588 50.16 80.5868 50.56 81.7708 50.56ZM95.2254 52.168C93.1934 52.168 91.5854 51.648 90.4014 50.608L91.0494 49.168C91.6894 49.664 92.3454 50.032 93.0174 50.272C93.7054 50.496 94.4654 50.608 95.2974 50.608C96.2094 50.608 96.8974 50.456 97.3614 50.152C97.8414 49.832 98.0814 49.376 98.0814 48.784C98.0814 48.304 97.9214 47.928 97.6014 47.656C97.2814 47.368 96.7534 47.136 96.0174 46.96L93.9774 46.48C92.9694 46.256 92.1854 45.856 91.6254 45.28C91.0814 44.704 90.8094 44.016 90.8094 43.216C90.8094 42.512 91.0014 41.896 91.3854 41.368C91.7694 40.824 92.3054 40.4 92.9934 40.096C93.6814 39.792 94.4974 39.64 95.4414 39.64C96.2894 39.64 97.0894 39.776 97.8414 40.048C98.5934 40.32 99.2254 40.712 99.7374 41.224L99.0894 42.64C98.5134 42.16 97.9214 41.808 97.3134 41.584C96.7214 41.344 96.0974 41.224 95.4414 41.224C94.5774 41.224 93.9054 41.392 93.4254 41.728C92.9614 42.064 92.7294 42.52 92.7294 43.096C92.7294 43.592 92.8734 43.984 93.1614 44.272C93.4654 44.56 93.9454 44.784 94.6014 44.944L96.6414 45.448C97.7774 45.688 98.6094 46.088 99.1374 46.648C99.6814 47.192 99.9534 47.888 99.9534 48.736C99.9534 49.776 99.5294 50.608 98.6814 51.232C97.8334 51.856 96.6814 52.168 95.2254 52.168ZM107.684 52.168C106.612 52.168 105.668 51.92 104.852 51.424C104.052 50.912 103.428 50.192 102.98 49.264C102.548 48.32 102.332 47.216 102.332 45.952C102.332 44.688 102.556 43.584 103.004 42.64C103.452 41.696 104.076 40.96 104.876 40.432C105.692 39.904 106.628 39.64 107.684 39.64C108.788 39.64 109.724 39.912 110.492 40.456C111.26 41 111.78 41.776 112.052 42.784L111.764 42.976V39.928H113.684V52H111.764V48.88L112.052 49.024C111.78 50.032 111.26 50.808 110.492 51.352C109.724 51.896 108.788 52.168 107.684 52.168ZM108.068 50.56C109.252 50.56 110.164 50.16 110.804 49.36C111.444 48.544 111.764 47.392 111.764 45.904C111.764 44.416 111.436 43.272 110.78 42.472C110.14 41.672 109.236 41.272 108.068 41.272C106.884 41.272 105.956 41.688 105.284 42.52C104.628 43.336 104.3 44.48 104.3 45.952C104.3 47.424 104.628 48.56 105.284 49.36C105.956 50.16 106.884 50.56 108.068 50.56ZM127.252 52L122.116 39.952H124.156L128.524 50.584H127.948L132.364 39.952H134.308L129.1 52H127.252ZM140.942 52.168C139.87 52.168 138.926 51.92 138.11 51.424C137.31 50.912 136.686 50.192 136.238 49.264C135.806 48.32 135.59 47.216 135.59 45.952C135.59 44.688 135.814 43.584 136.262 42.64C136.71 41.696 137.334 40.96 138.134 40.432C138.95 39.904 139.886 39.64 140.942 39.64C142.046 39.64 142.982 39.912 143.75 40.456C144.518 41 145.038 41.776 145.31 42.784L145.022 42.976V39.928H146.942V52H145.022V48.88L145.31 49.024C145.038 50.032 144.518 50.808 143.75 51.352C142.982 51.896 142.046 52.168 140.942 52.168ZM141.326 50.56C142.51 50.56 143.422 50.16 144.062 49.36C144.702 48.544 145.022 47.392 145.022 45.904C145.022 44.416 144.694 43.272 144.038 42.472C143.398 41.672 142.494 41.272 141.326 41.272C140.142 41.272 139.214 41.688 138.542 42.52C137.886 43.336 137.558 44.48 137.558 45.952C137.558 47.424 137.886 48.56 138.542 49.36C139.214 50.16 140.142 50.56 141.326 50.56ZM155.764 52.168C154.58 52.168 153.556 51.912 152.692 51.4C151.828 50.888 151.156 50.168 150.676 49.24C150.212 48.312 149.98 47.216 149.98 45.952C149.98 44.704 150.22 43.608 150.7 42.664C151.18 41.704 151.86 40.96 152.74 40.432C153.62 39.904 154.66 39.64 155.86 39.64C156.676 39.64 157.46 39.784 158.212 40.072C158.98 40.344 159.612 40.728 160.108 41.224L159.46 42.664C158.868 42.2 158.284 41.856 157.708 41.632C157.148 41.392 156.564 41.272 155.956 41.272C154.74 41.272 153.772 41.68 153.052 42.496C152.348 43.312 151.996 44.464 151.996 45.952C151.996 47.424 152.348 48.56 153.052 49.36C153.756 50.16 154.724 50.56 155.956 50.56C156.548 50.56 157.132 50.448 157.708 50.224C158.284 49.984 158.868 49.632 159.46 49.168L160.108 50.608C159.596 51.088 158.948 51.472 158.164 51.76C157.396 52.032 156.596 52.168 155.764 52.168ZM167.215 52.168C166.143 52.168 165.199 51.92 164.383 51.424C163.583 50.912 162.959 50.192 162.511 49.264C162.079 48.32 161.863 47.216 161.863 45.952C161.863 44.688 162.087 43.584 162.535 42.64C162.983 41.696 163.607 40.96 164.407 40.432C165.223 39.904 166.159 39.64 167.215 39.64C168.319 39.64 169.255 39.912 170.023 40.456C170.791 41 171.311 41.776 171.583 42.784L171.295 42.976V39.928H173.215V52H171.295V48.88L171.583 49.024C171.311 50.032 170.791 50.808 170.023 51.352C169.255 51.896 168.319 52.168 167.215 52.168ZM167.599 50.56C168.783 50.56 169.695 50.16 170.335 49.36C170.975 48.544 171.295 47.392 171.295 45.904C171.295 44.416 170.967 43.272 170.311 42.472C169.671 41.672 168.767 41.272 167.599 41.272C166.415 41.272 165.487 41.688 164.815 42.52C164.159 43.336 163.831 44.48 163.831 45.952C163.831 47.424 164.159 48.56 164.815 49.36C165.487 50.16 166.415 50.56 167.599 50.56ZM176.974 52V43.312C176.974 42.752 176.958 42.192 176.926 41.632C176.91 41.056 176.862 40.488 176.782 39.928H178.63L178.846 42.424L178.606 42.616C178.942 41.64 179.502 40.904 180.286 40.408C181.07 39.896 181.974 39.64 182.998 39.64C185.894 39.64 187.342 41.232 187.342 44.416V52H185.398V44.512C185.398 43.392 185.174 42.576 184.726 42.064C184.278 41.536 183.574 41.272 182.614 41.272C181.494 41.272 180.598 41.616 179.926 42.304C179.254 42.992 178.918 43.92 178.918 45.088V52H176.974ZM190.341 52V50.656L198.597 40.672L198.909 41.464H190.605V39.928H200.277V41.344L192.069 51.28L191.805 50.464H200.541V52H190.341ZM213.041 50.56C212.513 51.056 211.833 51.448 211.001 51.736C210.185 52.024 209.345 52.168 208.481 52.168C207.233 52.168 206.153 51.92 205.241 51.424C204.345 50.928 203.649 50.216 203.153 49.288C202.673 48.344 202.433 47.224 202.433 45.928C202.433 44.68 202.673 43.584 203.153 42.64C203.633 41.696 204.297 40.96 205.145 40.432C206.009 39.904 207.001 39.64 208.121 39.64C209.193 39.64 210.113 39.88 210.881 40.36C211.649 40.824 212.233 41.496 212.633 42.376C213.049 43.256 213.257 44.312 213.257 45.544V45.904H204.137V44.632H212.153L211.529 45.52C211.561 44.112 211.281 43.032 210.689 42.28C210.113 41.528 209.265 41.152 208.145 41.152C206.977 41.152 206.057 41.568 205.385 42.4C204.729 43.216 204.401 44.352 204.401 45.808C204.401 47.376 204.745 48.56 205.433 49.36C206.137 50.16 207.161 50.56 208.505 50.56C209.209 50.56 209.881 50.448 210.521 50.224C211.177 49.984 211.801 49.624 212.393 49.144L213.041 50.56Z" fill="#FFCF00"/>
<circle cx="27" cy="28" r="26.5" stroke="#FFCF00"/>
<path d="M3.01414 25.1743L3.01234 25.1396L3 25.0932L3.01061 25.0702L3.00879 25.0122L3.11295 24.9595L3.19951 24.857L3.27365 24.9264L3.31426 24.8967L3.38487 24.847L3.48912 24.7199L3.58446 24.4885L3.53144 24.3695L3.54558 24.315L3.67801 24.1911L3.6974 24.044L3.81923 23.8473L3.8175 23.7268L3.73801 23.6193L3.62679 23.573L3.60032 23.4838L3.55438 23.4376L3.57385 23.3318L3.48377 23.2658L3.47315 23.193L3.59153 22.9748L3.90932 22.38L3.99054 22.1619L3.98348 22.0925L3.96225 21.9421L4.02054 21.8298L4.15478 21.6976L4.16538 21.5853L4.15297 21.4068L4.14943 21.3374L4.0965 21.2877L3.94467 21.2811L3.97821 21.1804L4.0965 21.2101L4.23772 21.2003L4.31186 21.1656L4.46025 20.9607L4.59268 20.9027L4.68976 20.7623L4.79925 20.6665L4.91753 20.4286L4.98108 20.3609L5.09763 20.3063L5.19118 20.3079L5.56914 20.3789L5.79332 20.3195L6.05471 20.2054L6.15008 20.1395L6.2806 19.9708L6.40079 19.8916L6.41838 19.8551L6.36717 19.7494L6.3813 19.6155L6.54374 19.5379L6.63909 19.5313L6.84566 19.6602L6.96567 19.6634L7.06102 19.6321L7.24656 19.4569L7.32778 19.3115L7.29587 19.2471L7.33295 19.1629L7.42124 19.0869L7.44418 19.0223L7.38951 18.9481L7.33122 18.8703L7.12466 18.4606L7.11413 18.3912L7.17415 18.2705L7.23588 18.2143L7.33122 18.1813L7.39295 18.1945L7.42486 18.2424L7.36295 18.2904L7.36122 18.3349L7.43192 18.3928L7.78144 18.3796L7.83973 18.3399L7.88214 18.3531L7.90681 18.5697L7.88043 18.7845L7.92628 18.8258L8.04992 18.8438L8.12408 19.0125L8.20166 19.0785L8.22822 19.1677L8.19993 19.3215L8.23701 19.5627L8.51066 20.0783L8.67843 20.1311L8.7474 20.2005L8.81792 20.4104L8.8657 20.4435L8.93277 20.4483L8.96811 20.5012L9.14106 20.5426L9.19229 20.6649L9.27711 20.6747L9.35298 20.6153L9.39351 20.6202L9.43765 20.6532L9.43592 20.7673L9.46421 20.84L9.52784 20.8863L9.82079 21.035L10.0063 21.0515L10.0275 21.0267L10.1634 21.0184L10.5271 20.9326L10.9175 20.7904L11.4948 20.4252L11.8532 20.2105L11.9679 20.1922L12.1022 20.1228L12.1657 20.0518L12.2681 19.8551L12.2328 19.5908L12.0369 19.148L11.9486 19.0803L11.9538 19.0472L12.0315 19.0207L12.0986 18.9612L12.1976 18.9513L12.231 18.8141L12.2859 18.748L12.4359 18.6654L12.3635 18.5382L12.3618 18.4654L12.4447 18.3698L12.5859 18.2061L12.7202 18.1283L12.9515 18.1003L13.0873 18.1614L13.1951 18.2607L13.2693 18.2787L13.3875 18.2011L13.4405 18.2226L13.5624 18.444L13.6489 18.4821L13.8007 18.4871L14.0585 18.4241L14.3464 18.2805L14.4718 18.1945L14.553 18.087L14.5918 17.8608L14.6696 17.8656L14.7384 17.9334L14.8125 17.9549L14.9149 17.9202L15.0191 17.935L15.0686 17.9169L15.1286 17.8129L15.2081 17.7946L15.381 17.6609L15.4888 17.6262L15.5329 17.631L15.6266 17.5534H15.6759L15.7466 17.6855L15.8207 17.7152L15.8895 17.7417L15.8824 17.8937V17.9037L16.0149 18.0425L16.0661 18.0954L16.2356 18.0838L16.2816 18.1087L16.407 18.3399L16.4158 18.5101L16.4934 18.7035L16.5182 18.8456L16.4634 19.0604L16.4617 19.0752L16.4511 19.2206L16.5041 19.3809L16.6294 19.5148L17.0108 19.7394L17.2986 19.751L17.4574 19.8204L17.7542 19.7958L18.0244 19.7131L18.1479 19.6801L18.3756 19.5363L18.4446 19.4007L18.5876 19.4685L18.7712 19.518L18.8241 19.5644L18.8295 19.6949L18.9036 19.8419L18.8719 20.0452L18.9283 20.1395L18.8736 20.2931L18.8807 20.3773L18.9602 20.4567L19.0555 20.5674L19.2744 20.8267L19.3963 20.9193L19.6275 21.02L19.7635 21.0433L20.0779 21.3044L20.3303 21.3605L20.4027 21.4398L20.6852 21.5935L20.9607 21.6415L21.0683 21.6447L21.0719 21.6481L21.1566 21.6926L21.3491 21.7141V21.7471L21.2644 21.7852L21.2873 21.8512L21.3032 21.8546L21.5663 21.9158L21.727 22.0132L21.8258 22.0247L22.3043 21.9571L22.578 21.9174L22.8889 21.8133L23.0671 21.8017L23.3408 21.7373L23.5315 21.6497L24.2112 21.2729L24.4921 21.0796L24.5768 21.0086L24.6899 20.9639L24.8046 20.9673L25.0094 20.8648L25.1436 20.9127L25.276 20.9177L25.405 20.8566L25.5674 20.8367L25.6679 20.7639L25.7581 20.7657L25.9893 20.868L26.083 20.9557L26.3178 21.0565L26.4361 21.1093L26.7398 21.1026L26.9517 21.182L27.1124 21.1754L27.3278 21.1225L27.3826 21.0796L27.4426 20.9276L27.5238 20.9458L27.8133 21.1341L28.0358 21.1375L28.0711 21.1672L28.3096 21.1804L28.4808 21.2597L28.6574 21.2697L28.7615 21.334L28.8515 21.3457L29.0669 21.3489L29.2242 21.2927L29.3266 21.3076L29.5932 21.3704L29.692 21.3423L29.9446 21.3308L30.3241 21.1853L30.7179 21.2316L31.124 21.0597L31.4101 20.8548L31.6079 20.7409L31.6855 20.7507L31.8303 20.8582L32.2046 20.8796L32.3212 20.8516H32.5136L32.9304 20.7244L33.3912 20.4202L33.8274 20.4286L34.0691 20.255L34.2952 20.2568L34.4013 20.2155L34.7313 19.9692L34.9661 19.8684L35.4217 19.3049L35.8826 18.7993L35.9638 18.6523L36.0062 18.6208L36.0804 18.6126L36.1245 18.6555L36.4299 18.7646L36.656 18.7778L36.8096 18.7398L37.3852 18.5878L37.6447 18.4853L37.9007 18.5151L38.0897 18.4291L38.4729 18.1317L38.5399 18.1153L38.6036 18.1614L38.6882 18.3086L38.8014 18.3565L38.8665 18.3846L38.9284 18.5117L39.2216 18.8208L39.255 18.8555L39.4899 18.8539L39.6435 18.8522H39.7671L39.8766 18.8902L40.0091 18.8918L40.2951 18.8422L40.3886 18.9002L40.521 19.0752L40.5159 19.2058L40.5705 19.2437L41.0668 19.4123L41.3368 19.2768L41.4128 19.219L41.6582 19.0273L41.8665 18.9744L42.0872 18.839L42.6435 18.2904L42.8588 17.9136L42.8676 17.8971L42.8713 17.8905L42.8854 17.8327L42.91 17.7219L42.9137 17.7136L42.9542 17.6129L43.0425 17.398L43.0178 17.1419L43.0442 17.0015L42.9966 16.8726L42.8376 16.8164L42.8818 16.7454H43.0442L43.2544 17.2097L43.2227 17.4592L43.2032 17.6029L43.1961 17.6609L43.1732 17.7004L43.1466 17.7451L43.2049 17.7748L43.341 17.8458L43.611 17.8871L43.7929 17.9037L43.8919 17.8871L44.358 17.7417L44.6192 17.7088L44.8028 17.6442L45.6293 17.2759L45.9895 17.1138L46.2666 16.9321L46.6729 16.6347L46.987 16.362L47.2043 16.2413L47.3509 16.2L47.4833 16.21L47.6686 16.3091L48.0006 16.5305L48.3925 16.7256L48.5144 16.752L48.6644 16.742L48.9683 16.7934L49 16.8197L48.9876 16.876L48.894 16.9486L48.2991 17.1188L48.0306 17.2973L47.8735 17.5285L47.7852 17.8129L47.7481 17.8971L47.6333 18.1582L47.6421 18.2127L47.704 18.2308L47.7994 18.1185L47.7728 18.0557L47.7869 18.0277L47.8611 18.0475L47.9035 18.102L47.8857 18.2027L47.8082 18.3664L47.6528 18.5679L47.4904 18.7811L47.4285 18.8605L47.229 19.2437L46.987 19.7412L46.8724 20.0568L46.7187 20.3294L46.4539 20.7112L46.1025 21.007L46.0195 21.2845L45.8888 21.4151L45.8376 21.5191L45.6222 21.7405L45.225 22.233L45.1508 22.3106L45.0554 22.4941L44.7816 22.8312L44.6811 22.9682L44.6175 23.1567L44.4285 23.3269L44.335 23.5004L44.0172 23.811L43.959 24.0803L43.9748 24.1547L43.9853 24.2125L43.9324 24.3117L43.8829 24.3447L43.8636 24.3563L43.7753 24.3414L43.611 24.5695L43.5898 24.6009L43.5951 24.6587L43.6429 24.7082L43.4363 24.8983L43.3586 25.009L43.3339 25.0074L43.341 25.0403L42.963 25.5725L42.6505 26.2202L42.6523 26.2317L42.6576 26.2682L42.6664 26.3375L42.6981 26.359L42.7211 26.3739L42.7564 26.5259L42.8713 26.6927L42.8483 26.7721L42.6311 27.1307L42.5498 27.4463L42.5445 27.6859L42.5216 27.7421L42.2603 28.0626L42.2162 28.2675L42.1896 28.3898L42.1791 28.7021L42.2267 29.0078L42.1933 29.1218L42.1031 29.2258L42.0643 29.3712L41.9389 29.4506L41.7623 29.7035L41.697 29.7233L41.5134 29.9L41.4058 29.9233L41.3634 29.9628L41.388 30.0207L41.3758 30.0637L41.358 30.0867L41.1902 30.3131L41.1019 30.4304L41.0668 30.4751L40.9661 30.6105L40.9448 30.718L40.9412 30.7362V30.7495V30.9741V30.9791L40.9431 31.0419V31.0766L40.9466 31.1493L40.9943 31.8598L40.9925 32.0911L40.959 32.1837L40.9678 32.5621L41.0278 32.9024L41.0102 33.3767L41.0578 33.6065L41.1638 33.813L41.4304 33.8411L41.6811 33.9005L41.9213 34.188L41.9726 34.193L42.0077 34.1963L42.0608 34.0972L42.2691 34.1963L42.3221 34.259L42.3133 34.2905L42.4157 34.2955L42.5057 34.2029L42.5128 34.112L42.6028 34.1203L42.6893 34.1979L42.7618 34.388L42.9013 34.5566L43.099 34.7168L43.2261 34.9332L43.3161 35.0275L43.2473 35.1514L43.2278 35.1893L43.1078 35.2076L43.0159 35.0985L42.9313 35.0654L42.8976 35.0936L42.8906 35.4175L42.8464 35.4983L42.7988 35.4951L42.7688 35.4339L42.8113 35.2835L42.8094 35.1514L42.7935 35.1183L42.7723 35.0754L42.7088 35.0241L42.6328 35.0076L42.4352 35.1167L42.3998 35.1893L42.4352 35.3199L42.4157 35.381L42.2903 35.5711L42.3133 35.5876L42.3715 35.9313L42.4316 36.0454L42.5605 36.1791L42.5164 36.2419L42.6223 36.5064L42.7035 36.6137L42.8183 36.6269L42.8835 36.6055L42.9225 36.5525L42.9188 36.4651L42.9525 36.4402L43.0813 36.5609L43.0902 36.579L43.1254 36.655L43.092 36.6915L42.9383 36.665L42.8676 36.6849L42.8235 36.8385L42.8659 36.9823L42.9276 37.0781L43.0813 37.1788L43.1344 37.283L43.2685 37.3045L43.3586 37.3771L43.4839 37.392L43.6217 37.3292L43.8 37.3689L43.8795 37.3854L43.92 37.4483L43.9536 37.7308L43.9571 37.8845V37.8895L43.8707 38.0992L43.9253 38.1769L43.8936 38.314L43.8688 38.3289L43.8158 38.2348L43.6763 38.1819L43.6393 38.1951L43.5881 38.3273L43.65 38.4925L43.7453 38.6463L43.8 38.6627L44.0083 38.5536L44.0365 38.5636L44.1938 38.6198L44.2943 38.8924L44.4657 39.137L44.4356 39.208L44.1707 39.1749H44.1672L44.0507 39.0692L43.9377 39.0676L43.8758 39.1204L43.7841 39.2014L43.7346 39.208L43.657 39.1551L43.5668 39.1799L43.4786 39.2361L43.4415 39.3038L43.4805 39.5699L43.4098 39.6608L43.3761 39.7813L43.002 39.8128L42.8235 39.9582L42.7706 39.9698L42.6664 39.9399L42.6276 40.0789L42.5004 40.1036L42.3998 40.2044L42.2003 40.568L41.9124 40.7398L41.6599 41.338L41.6104 41.5097L41.6087 41.5594L41.3846 41.789L41.2751 41.9675L41.2238 42.1923L41.2626 42.45L41.2485 42.5922L41.1726 42.7622L41.079 42.8234L41.0914 43.0283L41.0473 43.1027V43.1687V43.1886L41.1268 43.3588L41.1531 43.5505L41.2538 43.7471L41.4039 43.8579L41.3616 43.9141L41.4339 44.1122L41.388 44.4032L41.4146 44.4726L41.5894 44.7204L41.6565 44.869L41.6617 44.9468L41.5682 45.16L41.5434 45.2178L41.5116 45.2161L41.4941 45.0822L41.4058 45.0624L41.2856 45.1004L41.2485 45.1319L41.2097 45.2607L41.1073 45.2773L40.989 45.4127L40.9061 45.459L40.8407 45.464L40.5122 45.2178L40.3976 44.9733L40.2774 44.8245L40.1025 44.651L40.0673 44.6344L39.9879 44.5931L39.6894 44.547L39.6452 44.5717L39.6364 44.575L39.4987 44.7584L39.4281 44.7882L39.2216 44.7716L39.1297 44.7634L38.9619 44.7237L38.8702 44.6643L38.667 44.4196L38.5099 44.2957L38.1727 44.1339L37.7825 44.0727L37.6466 44.0958L37.56 44.1371L37.4293 44.2775L37.274 44.2875L37.1874 44.3536L37.1098 44.3701L36.9932 44.3536L36.9313 44.3799L36.7672 44.5303L36.6718 44.5684L36.5923 44.5518L36.4989 44.471L36.4053 44.4363L36.2251 44.4247L36.1792 44.3701L36.0609 44.2346L36.0062 44.2247L35.8914 44.3288L35.7926 44.2676L35.7024 44.2941L35.5541 44.2825L35.4024 44.337L35.2188 44.2644L35.1868 44.2528L35.028 43.957L34.9079 43.8265L34.4259 43.5026L34.1293 43.4184L34.034 43.3654L33.8096 43.263L33.2887 43.134L33.2323 43.1324L33.1492 43.1854L32.948 43.1242L32.6902 43.063L32.473 43.04L32.3229 42.9341L32.2029 42.6896L32.1005 42.5888L31.9857 42.536L31.961 42.2055L31.8444 41.8105L31.7437 41.551L31.712 41.4702L31.6467 41.3529L31.532 41.2504L31.433 41.0966L31.3059 40.7778L31.223 40.71L31.1769 40.5183L31.0004 40.2143L30.5397 39.6012L30.2377 39.1997L29.5083 38.5073L29.1252 38.3026L28.924 38.1572L28.6803 38.1207L28.6503 38.0629L28.6308 38.0248L28.4313 37.9142L28.3748 37.8828L27.8963 37.7126L27.6243 37.5853L27.4336 37.5754L27.0946 37.4912L26.8934 37.4433L26.4273 37.3705L25.9947 37.4218L25.6133 37.3723L24.9989 37.3805L24.8804 37.4168L24.7375 37.5704L24.6968 37.6003L24.6934 37.6035L24.6916 37.6051L24.4638 37.5788L24.4109 37.5738L24.2573 37.5804L24.1619 37.6135L23.9588 37.5953L23.8388 37.5375L23.6763 37.5044L23.475 37.3077L23.4379 37.1954L23.3496 37.0549L23.0247 36.7873L22.903 36.7426L22.5992 36.6881L22.3662 36.7013L22.3043 36.736L22.0624 36.6682L21.9036 36.6584L21.7587 36.5692L21.6034 36.3526L21.4834 36.2469L21.3385 36.2221L21.2378 36.1759L20.823 35.89L20.6447 35.842L20.491 35.5364L20.3408 35.3166L20.2262 35.2109L20.1167 35.1927L20.0443 35.1448L19.7353 34.8325L19.4545 34.6755L19.3997 34.5829L19.2373 34.416L18.9778 34.2508L18.8683 34.2343L18.81 34.2261L18.8171 34.307L18.7836 34.3434L18.7588 34.3087L18.7341 34.317L18.7005 34.3847L18.6529 34.312L18.6334 34.2823L18.6105 34.269L18.561 34.2392L18.3227 34.183L18.1497 34.2574L18.0349 34.2524L17.8425 34.117L17.5988 34.1022L17.5157 34.0046L17.394 33.955L17.2228 33.7932L17.085 33.6097L16.8024 33.3717L16.6718 33.3155L16.5853 33.2114L16.3558 33.1238L16.1844 32.9586L16.1068 32.9157L15.8012 32.8992L15.4659 32.4845L15.3246 32.4199L15.2098 32.4001L15.0508 32.4215L15.0296 32.3953L14.8972 31.9854L14.733 31.7177L14.5882 31.6054L14.4187 31.3294L14.2281 31.1063L14.1592 31.0866L14.0797 31.0122L14.0304 30.999L13.9843 31.0551L13.9472 31.0469L13.8626 30.8536L13.6472 30.5925L13.5624 30.5478L13.2941 30.5148L13.0963 30.5461L13.0734 30.4718L12.9215 30.5263L12.6671 30.4058L12.5154 30.3793L12.2947 30.3941L12.1162 30.3462L11.9362 30.3661L11.7932 30.4884L11.5725 30.4834L11.4506 30.5165L11.4011 30.4916L11.3058 30.1728L11.2265 30.0571L11.184 29.9943L11.0957 29.9117L11.0216 29.748L10.8202 29.5647L10.6968 29.3961L10.4107 29.1697L10.2853 29.1053L10.1263 29.1168L9.95857 29.0672L9.73785 29.1284L9.41127 29.0227L9.22764 28.9912H8.60601L8.26701 28.9995L8.15234 28.9748L7.72506 29.0474L7.10707 29.2407L6.61444 29.3977L6.49614 29.3317L6.37079 29.3002L6.17301 29.0805L6.03868 28.8178L5.7633 28.4113L5.6521 28.0477L5.57622 27.9502L5.5038 27.9039L5.23532 27.7288L5.20712 27.7106L5.05349 27.6198L4.93521 27.5851L4.75157 27.5652L4.54145 27.6428L4.37368 27.6081L4.34541 27.547L4.32247 27.4926L4.24125 27.4579L3.9658 27.2067L3.81397 26.972L3.72395 26.944L3.67628 26.8365L3.71507 26.7358L3.70448 26.6861L3.6074 26.5359L3.65507 26.3987L3.64619 26.1641L3.45377 25.6898L3.27194 25.4205L3.19244 25.3032L3.15537 25.29L3.11475 25.3246L3.01414 25.1743Z" fill="#FFCF00"/>
</svg>
