<svg height="512pt" viewBox="-4 0 512 512.00852" width="512pt" xmlns="http://www.w3.org/2000/svg"><path d="m199.445312 282.074219-1.507812-.300781c-1.101562-.214844-2.234375-.214844-3.332031 0l-1.515625.300781c-27.886719 5.644531-47.953125 30.125-48.019532 58.574219v34.828124c.011719 9.417969 7.648438 17.050782 17.066407 17.066407h68.265625c9.421875-.015625 17.054687-7.648438 17.070312-17.066407v-34.828124c-.066406-28.449219-20.140625-52.929688-48.027344-58.574219zm-28.773437 93.402343h-8.535156v-34.828124c.039062-9.144532 3.03125-18.035157 8.535156-25.34375zm34.132813 0h-17.066407v-73.816406c2.734375-1.242187 5.59375-2.1875 8.53125-2.820312 2.9375.632812 5.800781 1.578125 8.535157 2.820312zm25.617187 0h-8.550781v-60.171874c5.5 7.308593 8.496094 16.195312 8.53125 25.34375zm0 0"/><path d="m486.402344 409.609375h-93.863282v-8.535156c-.023437-6.066407-3.273437-11.664063-8.535156-14.691407v-113.308593c4.714844 0 8.535156-3.820313 8.535156-8.53125 0-4.714844-3.820312-8.535157-8.535156-8.535157h-17.066406v-187.734374c-.050781-.386719-.125-.769532-.230469-1.144532 0-.398437-.035156-.796875-.09375-1.195312l-17.066406-59.730469c-1.042969-3.671875-4.394531-6.203125-8.210937-6.203125-3.8125 0-7.164063 2.53125-8.207032 6.203125l-5.546875 19.40625h-40.757812l-5.546875-19.410156c-1.042969-3.667969-4.394532-6.199219-8.207032-6.199219-3.816406 0-7.164062 2.53125-8.207031 6.199219l-17.066406 59.734375c-.0625.394531-.09375.792968-.097656 1.195312-.101563.375-.179688.757813-.226563 1.144532v153.617187l-40.09375-30.035156c-.800781-.6875-1.664062-1.300781-2.574218-1.832031v-10.816407h8.53125c4.714843 0 8.535156-3.820312 8.535156-8.53125 0-4.714843-3.820313-8.535156-8.535156-8.535156h-8.53125v-8.53125c0-4.714844-3.820313-8.535156-8.535157-8.535156-4.710937 0-8.53125 3.820312-8.53125 8.535156v8.53125h-8.535156c-4.710937 0-8.53125 3.820313-8.53125 8.535156 0 4.710938 3.820313 8.53125 8.53125 8.53125h8.535156v10.789063c-.753906.441406-1.46875.949218-2.132812 1.511718l-40.535157 30.378907v-153.613281c-.046874-.386719-.125-.769532-.230468-1.144532 0-.398437-.03125-.796875-.09375-1.195312l-17.066406-59.730469c-1.042969-3.671875-4.394532-6.203125-8.207032-6.203125-3.816406 0-7.167968 2.53125-8.210937 6.203125l-5.542969 19.40625h-40.761719l-5.542969-19.410156c-1.042968-3.667969-4.394531-6.199219-8.210937-6.199219-3.8125 0-7.164063 2.53125-8.207031 6.199219l-17.066406 59.734375c-.0625.394531-.09375.792968-.09375 1.195312-.105469.375-.183594.757813-.230469 1.144532v187.734374h-17.066407c-4.714843 0-8.53515575 3.820313-8.53515575 8.535157 0 4.710937 3.82031275 8.53125 8.53515575 8.53125v179.199219c-4.714843 0-8.53515575 3.820312-8.53515575 8.535156 0 4.710937 3.82031275 8.535156 8.53515575 8.535156v25.597656c.011719 9.421875 7.644532 17.054688 17.066407 17.066406h460.796875c9.421875-.011718 17.054687-7.644531 17.070312-17.066406v-68.265625c-.015625-9.421875-7.648437-17.054687-17.070312-17.066406zm-145.066406-370.007813 5.753906 20.140626h-11.503906zm-18.628907 3.074219-4.875 17.066407h-21.253906l-4.878906-17.066407zm-49.636719-3.074219 5.753907 20.140626h-11.503907zm-8.53125 37.207032h85.332032v85.332031h-85.332032zm-119.46875 166.398437 50.765626-38.046875c.046874-.019531.09375-.027344.144531-.023437.234375 0 .605469.140625.722656.023437l50.769531 38.046875v12.800781h-102.402344zm-25.597656-203.605469 5.75 20.140626h-11.503906zm-18.632812 3.074219-4.875 17.066407h-21.253906l-4.875-17.066407zm-49.636719-3.074219 5.753906 20.140626h-11.503906zm-8.53125 37.207032h85.332031v85.332031h-85.332031zm68.265625 418.132812h-85.332031v-25.597656h85.332031zm0-42.667968h-85.332031v-179.199219h85.332031zm-68.265625-196.265626v-76.800781h85.332031v76.800781zm145.066406 238.933594h-17.066406v-29.097656c-.023437-13.410156 6.304687-26.039062 17.066406-34.042969zm34.132813 0h-17.066406v-63.144531c10.761718 8.003906 17.09375 20.632813 17.066406 34.046875zm42.667968-108.558594c-5.261718 3.027344-8.515624 8.625-8.535156 14.691407v93.867187h-17.066406v-29.097656c.074219-22.644531-12.730469-43.363281-33.015625-53.425781l-2.019531-1.007813c-2.328125-1.152344-4.890625-1.757812-7.488282-1.769531-.050781-.003906-.09375-.03125-.144531-.03125s-.089843.027344-.140625.027344c-2.601562.015625-5.160156.621093-7.492187 1.769531l-2.015625 1.011719c-20.289063 10.0625-33.09375 30.78125-33.015625 53.425781v29.097656h-25.601563v-25.597656c4.714844 0 8.535156-3.824219 8.535156-8.535156 0-4.714844-3.820312-8.535156-8.535156-8.535156v-179.199219h136.535156zm0-130.375v-76.800781h85.332032v76.800781zm25.597657 238.933594h-17.066407v-93.867187h17.066407zm51.199219 0h-34.132813v-93.867187h34.132813zm-34.132813-110.933594h-25.597656v-110.933593h85.332031v110.933593zm68.269531 110.933594h-17.070312v-93.867187h17.070312zm110.929688 0h-93.863282v-68.265625h93.863282zm0 0"/><path d="m85.335938 187.742188c-14.136719 0-25.597657 11.460937-25.597657 25.601562 0 14.136719 11.460938 25.597656 25.597657 25.597656 14.140624 0 25.601562-11.460937 25.601562-25.597656-.015625-14.132812-11.46875-25.585938-25.601562-25.601562zm0 34.132812c-4.710938 0-8.53125-3.820312-8.53125-8.53125 0-4.714844 3.820312-8.535156 8.53125-8.535156 4.714843 0 8.535156 3.820312 8.535156 8.535156-.003906 4.710938-3.820313 8.527344-8.535156 8.53125zm0 0"/><path d="m307.203125 238.941406c14.140625 0 25.601563-11.460937 25.601563-25.597656 0-14.140625-11.460938-25.601562-25.601563-25.601562-14.136719 0-25.597656 11.460937-25.597656 25.601562.015625 14.128906 11.464843 25.582031 25.597656 25.597656zm0-34.132812c4.714844 0 8.535156 3.820312 8.535156 8.535156 0 4.710938-3.820312 8.53125-8.535156 8.53125-4.710937 0-8.53125-3.820312-8.53125-8.53125 0-4.714844 3.820313-8.53125 8.53125-8.535156zm0 0"/><path d="m59.738281 358.410156h17.066407c9.421874-.015625 17.054687-7.648437 17.066406-17.066406v-15.050781c.046875-14.941407-8.402344-28.609375-21.785156-35.25-2.402344-1.203125-5.230469-1.203125-7.632813 0-13.382813 6.640625-21.828125 20.308593-21.78125 35.25v15.050781c.011719 9.417969 7.644531 17.050781 17.066406 17.066406zm0-32.117187c-.023437-6.863281 3.125-13.351563 8.53125-17.574219 5.410157 4.226562 8.558594 10.714844 8.535157 17.578125l.015624 15.046875h-17.082031zm0 0"/><path d="m59.738281 443.742188h17.066407c9.421874-.011719 17.054687-7.648438 17.066406-17.066407v-15.050781c.046875-14.941406-8.402344-28.609375-21.785156-35.25-2.402344-1.199219-5.230469-1.199219-7.632813 0-13.382813 6.640625-21.828125 20.308594-21.78125 35.25v15.050781c.011719 9.417969 7.644531 17.054688 17.066406 17.066407zm0-32.117188c-.023437-6.863281 3.125-13.347656 8.53125-17.574219 5.410157 4.226563 8.558594 10.714844 8.535157 17.578125l.015624 15.046875h-17.082031zm0 0"/><path d="m328.085938 291.042969c-2.402344-1.203125-5.230469-1.203125-7.632813 0-13.382813 6.640625-21.828125 20.308593-21.78125 35.25v15.050781c.011719 9.417969 7.644531 17.050781 17.066406 17.066406h17.066407c9.421874-.015625 17.054687-7.648437 17.066406-17.066406v-15.050781c.046875-14.941407-8.402344-28.609375-21.785156-35.25zm-12.347657 50.300781v-15.050781c-.023437-6.863281 3.125-13.351563 8.53125-17.574219 5.410157 4.226562 8.558594 10.714844 8.535157 17.578125l.015624 15.046875zm0 0"/><path d="m311.019531 86.242188c-2.402343-1.199219-5.230469-1.199219-7.632812 0-13.382813 6.640624-21.828125 20.308593-21.78125 35.25v15.050781c.011719 9.417969 7.644531 17.054687 17.066406 17.066406h17.066406c9.417969-.011719 17.054688-7.648437 17.066407-17.066406v-15.050781c.046874-14.941407-8.402344-28.609376-21.785157-35.25zm-12.347656 50.300781v-15.050781c-.023437-6.863282 3.125-13.351563 8.53125-17.574219 5.410156 4.226562 8.558594 10.714843 8.535156 17.578125l.015625 15.046875zm0 0"/><path d="m89.15625 86.242188c-2.40625-1.199219-5.234375-1.199219-7.636719 0-13.382812 6.640624-21.828125 20.308593-21.78125 35.25v15.050781c.011719 9.417969 7.644531 17.054687 17.066407 17.066406h17.066406c9.421875-.011719 17.054687-7.648437 17.066406-17.066406v-15.050781c.046875-14.941407-8.398438-28.609376-21.78125-35.25zm-12.351562 50.300781v-15.050781c-.023438-6.863282 3.125-13.351563 8.53125-17.574219 5.410156 4.226562 8.558593 10.714843 8.535156 17.578125l.015625 15.046875zm0 0"/><path d="m418.136719 477.875c4.714843 0 8.535156-3.820312 8.535156-8.53125v-17.070312c0-4.710938-3.820313-8.53125-8.535156-8.53125-4.710938 0-8.53125 3.820312-8.53125 8.53125v17.070312c0 4.710938 3.820312 8.53125 8.53125 8.53125zm0 0"/><path d="m460.804688 477.875c4.710937 0 8.53125-3.820312 8.53125-8.53125v-17.070312c0-4.710938-3.820313-8.53125-8.53125-8.53125-4.714844 0-8.535157 3.820312-8.535157 8.53125v17.070312c0 4.710938 3.820313 8.53125 8.535157 8.53125zm0 0"/></svg>